<?xml version="1.0" encoding="UTF-8"?>
<svg version="1.1" xmlns="http://www.w3.org/2000/svg" width="431" height="433">
<path d="M0 0 C142.23 0 284.46 0 431 0 C431 142.89 431 285.78 431 433 C288.77 433 146.54 433 0 433 C0 290.11 0 147.22 0 0 Z " fill="#010001" transform="translate(0,0)"/>
<path d="M0 0 C142.23 0 284.46 0 431 0 C431 142.89 431 285.78 431 433 C288.77 433 146.54 433 0 433 C0 290.11 0 147.22 0 0 Z M160.875 9.625 C159.89982422 9.88587402 158.92464844 10.14674805 157.91992188 10.41552734 C134.88984137 16.77596813 112.27520523 26.73971008 93 41 C92.47792969 41.38365723 91.95585938 41.76731445 91.41796875 42.16259766 C83.91290588 47.70571054 76.75701079 53.558131 70 60 C69.38108887 60.5863623 68.76217773 61.17272461 68.12451172 61.77685547 C29.07824547 98.99585612 3.76402164 150.82381574 1.88989258 205.19433594 C0.93418203 260.31101031 16.4999276 312.84406052 53 355 C53.70511719 355.81597656 54.41023438 356.63195312 55.13671875 357.47265625 C65.20432353 368.87778841 75.76363981 378.9759007 88 388 C89.06089844 388.78246094 90.12179688 389.56492187 91.21484375 390.37109375 C99.45641767 396.24920024 108.08511208 401.22625026 117 406 C118.14210938 406.61875 119.28421875 407.2375 120.4609375 407.875 C169.25167375 433.35081567 227.63658622 435.70457428 279.74609375 420.046875 C312.4694729 409.66305198 339.76865247 391.8074115 364.57080078 368.35009766 C365.77860205 367.20914429 366.99570563 366.07805034 368.21484375 364.94921875 C374.53971971 358.90889753 379.74246613 351.96075772 385 345 C385.42039551 344.45102051 385.84079102 343.90204102 386.27392578 343.33642578 C419.96401282 299.13406863 433.52500858 242.00138987 426.47827148 187.16259766 C420.12645696 143.11635102 400.60700561 101.59274547 369.57275391 69.62402344 C367.94417455 67.94235472 366.33789891 66.2409357 364.73046875 64.5390625 C351.85297309 51.092786 337.08147652 40.31446028 321 31 C320.34628418 30.6189209 319.69256836 30.2378418 319.01904297 29.84521484 C299.96190746 18.88000351 279.41293732 11.75962677 258 7 C256.79077881 6.73046761 256.79077881 6.73046761 255.55712891 6.45549011 C248.10922056 4.94646874 240.91167838 4.70897221 233.328125 4.734375 C231.40719025 4.73150482 231.40719025 4.73150482 229.44744873 4.72857666 C226.75137435 4.72565017 224.05543366 4.72983946 221.359375 4.73925781 C217.94933633 4.75060637 214.5396111 4.74391012 211.12958336 4.73239326 C193.87812352 4.68260176 177.62197763 5.12902465 160.875 9.625 Z " fill="#FEFEFE" transform="translate(0,0)"/>
<path d="M0 0 C0.99 0.495 0.99 0.495 2 1 C2.11676527 22.55729211 2.20495485 44.11453212 2.25906086 65.67207623 C2.28485021 75.68147536 2.32001472 85.69067809 2.37719727 95.69995117 C2.42700983 104.42333109 2.4592857 113.14656878 2.47044247 121.87008697 C2.47696488 126.4898459 2.49230944 131.10919792 2.52865028 135.72882652 C2.56257594 140.07664332 2.57305999 144.42388539 2.56553841 148.77182198 C2.5669145 150.36779783 2.57686781 151.9637928 2.59602737 153.55965424 C2.62091412 155.739384 2.61492413 157.91694535 2.60127258 160.09672546 C2.60818603 161.92602364 2.60818603 161.92602364 2.61523914 163.79227734 C1.82207073 167.9276844 0.2383765 169.39572291 -3 172 C-3.99 172.33 -4.98 172.66 -6 173 C-7.4081132 174.38911761 -7.4081132 174.38911761 -8.8125 176.1875 C-12.44000007 180.46248933 -16.30354614 184.45966482 -20.25 188.4375 C-20.86464111 189.06487061 -21.47928223 189.69224121 -22.11254883 190.33862305 C-22.69931396 190.92683838 -23.2860791 191.51505371 -23.890625 192.12109375 C-24.41688477 192.6514624 -24.94314453 193.18183105 -25.48535156 193.72827148 C-27 195 -27 195 -30 196 C-31.39925617 197.37175496 -31.39925617 197.37175496 -32.71484375 199.08203125 C-36.10929413 203.1870211 -39.78675739 206.93448001 -43.5625 210.6875 C-44.20896484 211.33783203 -44.85542969 211.98816406 -45.52148438 212.65820312 C-54.88232671 222 -54.88232671 222 -58 222 C-58.2475 222.5775 -58.495 223.155 -58.75 223.75 C-60.18299988 226.32939979 -61.78424676 228.06121592 -64 230 C-64.66 230 -65.32 230 -66 230 C-66.2371875 230.56203125 -66.474375 231.1240625 -66.71875 231.703125 C-68.28947697 234.51894042 -70.21471464 236.47955416 -72.5 238.75 C-73.69109375 239.94882812 -73.69109375 239.94882812 -74.90625 241.171875 C-77 243 -77 243 -79 243 C-80.33000656 244.31583673 -80.33000656 244.31583673 -81.75 246.125 C-85.31603718 250.32033786 -89.11074184 254.23265676 -93 258.125 C-93.58104492 258.71039551 -94.16208984 259.29579102 -94.76074219 259.89892578 C-98.19984286 263.32740599 -101.75395833 266.53018647 -105.46875 269.65625 C-107.31878286 271.27974823 -108.89902422 273.07105629 -110.5 274.9375 C-113.06995889 277.49024934 -113.77295326 277.95945594 -117.5 278.625 C-123.1231984 276.01422931 -125.07973791 271.29258588 -128 266 C-128.70140608 264.78731015 -129.40591958 263.57641312 -130.11328125 262.3671875 C-135.01915656 253.93823397 -139.6481325 245.70993048 -142.375 236.3125 C-143.35906732 232.93007767 -144.50434854 229.77725543 -145.9375 226.5625 C-153.441014 208.16307871 -155.05006426 185.68259989 -154 166 C-153.67 165.67 -153.34 165.34 -153 165 C-153.00617846 163.52025949 -153.05750168 162.04071315 -153.125 160.5625 C-153.25902796 134.52756812 -142.96843825 108.16086346 -130 86 C-129.64760254 85.38962891 -129.29520508 84.77925781 -128.93212891 84.15039062 C-127.75518823 82.11583043 -126.56716029 80.08817558 -125.375 78.0625 C-125.0025415 77.4228833 -124.63008301 76.7832666 -124.24633789 76.12426758 C-122.14825618 72.60973577 -119.9397763 69.82718912 -117 67 C-116.13375 65.3603125 -116.13375 65.3603125 -115.25 63.6875 C-113.21405782 59.96935077 -110.59004057 57.70219239 -107.34765625 55.0234375 C-103.58746732 51.78254255 -100.17762542 48.19645534 -96.7109375 44.6484375 C-72.85538311 21.34286707 -34.93003488 1 -1 1 C-0.67 0.67 -0.34 0.34 0 0 Z " fill="#0000FC" transform="translate(194,42)"/>
<path d="M0 0 C2.09099964 0.23036437 4.17397386 0.535202 6.25 0.875 C7.38953125 1.05804688 8.5290625 1.24109375 9.703125 1.4296875 C17.47152318 2.77350993 17.47152318 2.77350993 20.1875 3.9375 C22.78104192 4.9172825 25.09593051 5.43904688 27.8125 5.9375 C32.4759063 6.81145171 36.6103986 8.21164387 41 10 C41 10.66 41 11.32 41 12 C41.77601563 11.896875 42.55203125 11.79375 43.3515625 11.6875 C48.67591401 12.14354724 52.69698599 14.53086279 57.375 17 C58.76525391 17.71542969 58.76525391 17.71542969 60.18359375 18.4453125 C62.46155223 19.6195179 64.73312987 20.80456779 67 22 C67 22.66 67 23.32 67 24 C68.01126953 24.09474609 68.01126953 24.09474609 69.04296875 24.19140625 C73.0994168 25.30063313 75.95203603 27.46992965 79.3125 29.9375 C79.95767578 30.39318359 80.60285156 30.84886719 81.26757812 31.31835938 C82.88740999 32.489095 84.44942175 33.73897492 86 35 C86 35.66 86 36.32 86 37 C86.53625 37.061875 87.0725 37.12375 87.625 37.1875 C93.66198414 39.25278405 99.08028649 45.50437243 102.875 50.4375 C104.62447718 52.54716366 106.13028327 53.97517342 108.234375 55.6640625 C112.19414544 59.02304372 115.27090756 62.79269071 118.375 66.9375 C118.93735352 67.68402832 119.49970703 68.43055664 120.07910156 69.19970703 C130.51581536 83.26334278 139.79243992 99.20378508 145 116 C145.23460937 116.65742188 145.46921875 117.31484375 145.7109375 117.9921875 C150.87376681 132.63032708 154.4410233 148.17644351 153.97265625 163.734375 C153.73581856 165.96865918 153.73581856 165.96865918 155 167 C155.07271741 169.35313555 155.08370868 171.70833668 155.0625 174.0625 C155.05347656 175.35285156 155.04445313 176.64320313 155.03515625 177.97265625 C155.01775391 179.47119141 155.01775391 179.47119141 155 181 C154.34 181 153.68 181 153 181 C153.25716797 181.99193359 153.25716797 181.99193359 153.51953125 183.00390625 C154.11246436 186.70130216 153.93924083 190.22346059 153.6875 193.9375 C153.65205078 194.62779297 153.61660156 195.31808594 153.58007812 196.02929688 C153.30527548 200.35641323 152.36147122 203.91558635 151 208 C150.84739712 209.36723238 150.7223228 210.73767583 150.6171875 212.109375 C150.04188356 218.1035899 148.07281398 223.58109337 146.125 229.25 C145.77308594 230.3121875 145.42117188 231.374375 145.05859375 232.46875 C143.40722772 237.35532012 141.69948174 241.59330335 139 246 C138.55527344 247.38058594 138.55527344 247.38058594 138.1015625 248.7890625 C136.67127841 252.95818846 134.57664778 256.57027742 132.375 260.375 C131.95476562 261.11105469 131.53453125 261.84710938 131.1015625 262.60546875 C130.07247236 264.4063765 129.03689244 266.20357318 128 268 C127.34 268 126.68 268 126 268 C125.731875 268.721875 125.46375 269.44375 125.1875 270.1875 C124.00098638 272.99766383 122.72514361 275.48416557 121 278 C120.34 278 119.68 278 119 278 C119 278.66 119 279.32 119 280 C115.20680465 278.44067258 112.88626252 276.05753612 110.0625 273.125 C107.51841348 270.49047455 105.07431879 268.05792949 102.18359375 265.8046875 C101.46300781 265.20914062 100.74242187 264.61359375 100 264 C100 263.34 100 262.68 100 262 C99.40525879 261.73123047 98.81051758 261.46246094 98.19775391 261.18554688 C95.99400978 259.99676866 94.57979958 258.81085823 92.8359375 257.03125 C92.27132812 256.46019531 91.70671875 255.88914062 91.125 255.30078125 C90.5475 254.70652344 89.97 254.11226562 89.375 253.5 C88.78976562 252.90574219 88.20453125 252.31148437 87.6015625 251.69921875 C86.51771323 250.59796823 85.43593439 249.49467333 84.35693359 248.38867188 C82.25502722 246.23760252 80.11926437 244.2392025 77.8125 242.3125 C73.14141626 238.33091095 68.90481724 233.95494401 64.625 229.5625 C61.60515578 226.61455684 58.45949365 223.83786769 55.28125 221.0625 C52.7645155 218.7870962 50.38340238 216.41494741 48 214 C45.66919709 211.64331482 43.33503163 209.28999448 41 206.9375 C40.39671875 206.32583984 39.7934375 205.71417969 39.171875 205.08398438 C35.92669322 201.82116574 32.64860929 198.81850241 29 196 C26.20076257 193.34431321 23.64401099 190.59273084 21.1875 187.625 C17.81728118 183.64279771 13.97646187 180.35955283 10 177 C8.55984098 175.75306446 7.12227613 174.50312557 5.6875 173.25 C5.05199219 172.69828125 4.41648438 172.1465625 3.76171875 171.578125 C3.18035156 171.05734375 2.59898437 170.5365625 2 170 C1.47624409 169.60973192 0.95248817 169.21946384 0.41286087 168.81736946 C-1.72537164 166.06695111 -1.37163691 163.79168297 -1.36749268 160.34396362 C-1.37076152 159.66423622 -1.37403036 158.98450882 -1.37739825 158.28418362 C-1.38469396 156.00156746 -1.37050827 153.71958891 -1.35644531 151.43701172 C-1.35723596 149.80274343 -1.35933253 148.16847533 -1.36264038 146.53421021 C-1.36778127 142.0922242 -1.35422626 137.65046924 -1.33711338 133.20852041 C-1.32210052 128.5671707 -1.32325199 123.92582427 -1.32244873 119.28445435 C-1.3187545 111.49151656 -1.30377779 103.69866676 -1.28125 95.90576172 C-1.25235549 85.88977391 -1.2420253 75.87385692 -1.2375679 65.85783195 C-1.23359375 57.26154538 -1.22109213 48.66527431 -1.20722103 40.06899881 C-1.20311537 37.29818539 -1.20019318 34.52737252 -1.19742584 31.75655746 C-1.19254559 27.4113058 -1.18236388 23.06609746 -1.16798782 18.72086716 C-1.1634515 17.12163179 -1.16062303 15.52239057 -1.15958023 13.92314911 C-1.15784419 11.74941172 -1.14998712 9.57578411 -1.14044189 7.40206909 C-1.13746723 6.18274626 -1.13449257 4.96342342 -1.13142776 3.70715141 C-1 1 -1 1 0 0 Z " fill="#FD0000" transform="translate(235,42)"/>
<path d="M0 0 C6.93 14.19 13.86 28.38 21 43 C22.32 43 23.64 43 25 43 C31.93 28.81 38.86 14.62 46 0 C51.27219416 2.10887766 51.74074825 2.80953346 55 7 C56.16161783 8.04919759 57.34530672 9.07417351 58.54296875 10.08203125 C64.31620006 15.06791472 69.58620805 20.53943771 74.93359375 25.97265625 C79.1546141 30.2347238 83.43968391 34.30658559 87.99023438 38.21289062 C92.6434185 42.35056164 96.92548362 46.89008232 101.2890625 51.328125 C105.38412545 55.46540509 109.55476319 59.40253087 113.96875 63.19580078 C117.80964954 66.60736901 121.38913786 70.2859609 125 73.9375 C125.77472656 74.71673828 126.54945313 75.49597656 127.34765625 76.29882812 C129.23410757 78.1969242 131.11816245 80.09733149 133 82 C106.61076858 109.17352676 61.73858706 122.75956388 24.76358032 123.34585571 C22.67562007 123.36559034 20.58804888 123.37333572 18.5 123.375 C16.52314209 123.37765869 16.52314209 123.37765869 14.50634766 123.38037109 C7.94777459 123.30343025 2.27802679 122.85413226 -4 121 C-5.71177718 120.63754609 -7.426994 120.29112668 -9.14453125 119.95703125 C-21.95137718 117.39679042 -33.95592234 114.05920131 -46 109 C-46.71849121 108.70254883 -47.43698242 108.40509766 -48.17724609 108.09863281 C-63.11565244 101.81342659 -76.14917573 92.77897429 -89 83 C-87.38292778 79.55104977 -85.73204751 77.66691472 -82.8125 75.1875 C-77.4767094 70.5177152 -72.49262209 65.55617124 -67.53051758 60.49291992 C-64.46141614 57.38181549 -61.35095765 54.39191508 -58.0390625 51.5390625 C-53.81313315 47.89418565 -49.90599051 43.98227939 -46 40 C-42.12745648 36.05182087 -38.25872002 32.16875641 -34.0625 28.5625 C-29.4704649 24.60725102 -25.24694989 20.31942344 -21 16 C-16.63955045 11.56514004 -12.26460855 7.15013509 -7.6875 2.9375 C-7.07261719 2.36902344 -6.45773438 1.80054688 -5.82421875 1.21484375 C-4 0 -4 0 0 0 Z " fill="#FEFE01" transform="translate(193,268)"/>
<path d="M0 0 C2.19510603 0.25361783 4.38228739 0.57765908 6.5625 0.9375 C8.35880859 1.22947266 8.35880859 1.22947266 10.19140625 1.52734375 C11.11824219 1.68332031 12.04507813 1.83929688 13 2 C13 2.66 13 3.32 13 4 C9.37 3.67 5.74 3.34 2 3 C2.06050946 24.16629419 2.13799162 45.33246553 2.23571491 66.49862194 C2.28069259 76.32630021 2.32010271 86.15394208 2.34643555 95.98168945 C2.36939965 104.54692364 2.40277989 113.11204282 2.44870156 121.67718583 C2.47265521 126.21294606 2.49136994 130.74859224 2.49761391 135.28441429 C2.50365508 139.55341825 2.52361979 143.82213033 2.55427551 148.09102631 C2.56307128 149.65792376 2.56677514 151.22485933 2.56500816 152.79178047 C2.56335689 154.93173053 2.58004068 157.07078926 2.60127258 159.21061707 C2.60588155 160.40802615 2.61049051 161.60543524 2.61523914 162.83912945 C3.04037898 166.33171964 3.89432915 168.2064757 6 171 C7.2684375 171.7425 7.2684375 171.7425 8.5625 172.5 C11.50962161 174.3136133 12.03272384 175.74643472 13 179 C11.78684318 178.13169994 10.57977553 177.25489224 9.375 176.375 C8.70210937 175.88773438 8.02921875 175.40046875 7.3359375 174.8984375 C6.56507813 174.27195313 5.79421875 173.64546875 5 173 C3.97619736 172.29885574 2.95239471 171.59771149 1.89756775 170.87532043 C-2.2667988 166.62039358 -1.75870972 161.34686233 -1.75762939 155.73001099 C-1.73799227 154.18547855 -1.71777011 152.64095346 -1.69702148 151.09643555 C-1.69696607 149.46172395 -1.69954094 147.82701046 -1.70454407 146.19230652 C-1.71052963 141.76260271 -1.67939906 137.33385368 -1.64129519 132.9043386 C-1.6074758 128.27104525 -1.60691532 123.63774645 -1.60255432 119.00434875 C-1.59060293 111.22921182 -1.55680432 103.45443 -1.50756836 95.67944336 C-1.43808819 84.70014372 -1.40881104 73.72100258 -1.38716781 62.74151933 C-1.36889128 54.22739559 -1.33943456 45.71330482 -1.30859375 37.19921875 C-1.30542231 36.28340774 -1.30225088 35.36759674 -1.29898334 34.42403388 C-1.28020926 29.17130118 -1.25589705 23.91865014 -1.22286797 18.66598701 C-1.21351907 17.07159191 -1.20585574 15.47718595 -1.19995499 13.88277435 C-1.19154923 11.71575027 -1.17697521 9.54885831 -1.16062927 7.38188171 C-1.15375815 6.16645534 -1.14688704 4.95102896 -1.1398077 3.69877148 C-1 1 -1 1 0 0 Z " fill="#DF0C0C" transform="translate(235,42)"/>
<path d="M0 0 C0.66 0.33 1.32 0.66 2 1 C2.11676527 22.55729211 2.20495485 44.11453212 2.25906086 65.67207623 C2.28485021 75.68147536 2.32001472 85.69067809 2.37719727 95.69995117 C2.42700983 104.42333109 2.4592857 113.14656878 2.47044247 121.87008697 C2.47696488 126.4898459 2.49230944 131.10919792 2.52865028 135.72882652 C2.56257594 140.07664332 2.57305999 144.42388539 2.56553841 148.77182198 C2.5669145 150.36779783 2.57686781 151.9637928 2.59602737 153.55965424 C2.62091412 155.739384 2.61492413 157.91694535 2.60127258 160.09672546 C2.60588155 161.31625758 2.61049051 162.5357897 2.61523914 163.79227734 C1.83271692 167.87217749 0.12723027 169.37298414 -3 172 C-3.99 171.67 -4.98 171.34 -6 171 C-4.78227638 169.97254653 -4.78227638 169.97254653 -3.53995228 168.92433643 C-0.45349853 165.37079362 -0.3714793 163.85053896 -0.36076355 159.21061707 C-0.34823004 158.20578033 -0.34823004 158.20578033 -0.33544332 157.18064386 C-0.31355095 154.94305606 -0.32710685 152.70711558 -0.34057617 150.46948242 C-0.33212163 148.86284135 -0.32147691 147.25621053 -0.30880737 145.64959717 C-0.28065092 141.29245135 -0.28313435 136.93579765 -0.29110122 132.57858825 C-0.29422516 128.02345367 -0.26919524 123.46847613 -0.24714661 118.91340637 C-0.20968456 110.28975673 -0.19755734 101.66626478 -0.1945222 93.0425418 C-0.18983372 83.2239151 -0.15691714 73.4054466 -0.12162435 63.58688962 C-0.04966392 43.39127775 -0.01316893 23.19573015 0 3 C-2.47266765 3.34444881 -2.47266765 3.34444881 -5 4 C-5.33 4.66 -5.66 5.32 -6 6 C-6.66644531 5.97679687 -7.33289063 5.95359375 -8.01953125 5.9296875 C-14.1171868 5.81029285 -19.63783953 6.31898299 -25.58984375 7.66015625 C-28.10374227 8.01462816 -29.5911364 7.67893383 -32 7 C-12.64158585 1.51241607 -12.64158585 1.51241607 -3.0546875 1.140625 C-1.00756156 1.22661965 -1.00756156 1.22661965 0 0 Z " fill="#1E2196" transform="translate(194,42)"/>
<path d="M0 0 C4.43782714 1.59381601 6.18997024 3.1928629 9 7 C9.7425 7.7425 10.485 8.485 11.25 9.25 C12.11625 10.11625 12.11625 10.11625 13 11 C13 11.33 13 11.66 13 12 C12.13375 12.2475 11.2675 12.495 10.375 12.75 C6.81911201 14.06699555 4.12010289 15.87265712 1 18 C0.34 18 -0.32 18 -1 18 C-1 18.66 -1 19.32 -1 20 C-1.99 20 -2.98 20 -4 20 C-4 21.65 -4 23.3 -4 25 C-5.65 25.66 -7.3 26.32 -9 27 C-9 26.01 -9 25.02 -9 24 C-9.99 24.99 -10.98 25.98 -12 27 C-10.03170333 20.46150032 -7.44050976 14.49895432 -4.3125 8.4375 C-3.89677734 7.61958984 -3.48105469 6.80167969 -3.05273438 5.95898438 C-2.04067005 3.96975449 -1.02307153 1.9835846 0 0 Z " fill="#FCFB07" transform="translate(239,268)"/>
<path d="M0 0 C0 0.66 0 1.32 0 2 C-2.04099935 2.7933855 -4.0828309 3.5846303 -6.125 4.375 C-7.26195312 4.81585938 -8.39890625 5.25671875 -9.5703125 5.7109375 C-13 7 -13 7 -16.3046875 7.8515625 C-17.19414062 8.23054688 -18.08359375 8.60953125 -19 9 C-19.66 10.65 -20.32 12.3 -21 14 C-24.63 14.33 -28.26 14.66 -32 15 C-32 15.99 -32 16.98 -32 18 C-33.65 18 -35.3 18 -37 18 C-37 18.99 -37 19.98 -37 21 C-37.66 21 -38.32 21 -39 21 C-39 21.66 -39 22.32 -39 23 C-39.928125 23.12375 -39.928125 23.12375 -40.875 23.25 C-43.18437567 23.81258459 -43.18437567 23.81258459 -44.25 26.0625 C-44.4975 26.701875 -44.745 27.34125 -45 28 C-46.65 28 -48.3 28 -50 28 C-50.5534764 30.07553648 -51 31.84365964 -51 34 C-53.64 34.66 -56.28 35.32 -59 36 C-58.67 36.99 -58.34 37.98 -58 39 C-60.57230841 41.02109946 -63.06294472 42.5759732 -66 44 C-66.845625 44.53625 -67.69125 45.0725 -68.5625 45.625 C-71 47 -71 47 -74 47 C-71.96150399 44.93428372 -69.9193525 42.87240736 -67.875 40.8125 C-67.30523437 40.23435547 -66.73546875 39.65621094 -66.1484375 39.06054688 C-54.14619644 26.99011126 -40.16744791 17.83560877 -25.125 10 C-24.09205811 9.46052734 -23.05911621 8.92105469 -21.99487305 8.36523438 C-5.56560535 0 -5.56560535 0 0 0 Z " fill="#1D1DB5" transform="translate(161,50)"/>
<path d="M0 0 C2.19510603 0.25361783 4.38228739 0.57765908 6.5625 0.9375 C8.35880859 1.22947266 8.35880859 1.22947266 10.19140625 1.52734375 C11.11824219 1.68332031 12.04507813 1.83929688 13 2 C13 2.66 13 3.32 13 4 C8.71 3.67 4.42 3.34 0 3 C0.01485121 24.16632823 0.05600868 45.3324199 0.13209057 66.49862194 C0.16675301 76.32633639 0.19209774 86.1539104 0.19555664 95.98168945 C0.19859479 104.54697046 0.21906514 113.11200142 0.26052457 121.67718583 C0.28186988 126.21303029 0.29444738 130.74851914 0.28615379 135.28441429 C0.27862325 139.55356941 0.29439522 143.82200339 0.32806015 148.09102631 C0.33630555 149.65792274 0.33602903 151.22489073 0.32659721 152.79178047 C0.31498816 154.9322436 0.33406745 157.07033812 0.36076355 159.21061707 C0.36352893 160.40802615 0.36629431 161.60543524 0.36914349 162.83912945 C1.18441554 166.92400355 2.83200964 168.38484087 6 171 C7.3303125 171.7425 7.3303125 171.7425 8.6875 172.5 C11.5051356 174.32765553 12.05945489 175.83634827 13 179 C11.78684318 178.13169994 10.57977553 177.25489224 9.375 176.375 C8.70210937 175.88773438 8.02921875 175.40046875 7.3359375 174.8984375 C6.56507813 174.27195313 5.79421875 173.64546875 5 173 C3.97619736 172.29885574 2.95239471 171.59771149 1.89756775 170.87532043 C-2.2667988 166.62039358 -1.75870972 161.34686233 -1.75762939 155.73001099 C-1.73799227 154.18547855 -1.71777011 152.64095346 -1.69702148 151.09643555 C-1.69696607 149.46172395 -1.69954094 147.82701046 -1.70454407 146.19230652 C-1.71052963 141.76260271 -1.67939906 137.33385368 -1.64129519 132.9043386 C-1.6074758 128.27104525 -1.60691532 123.63774645 -1.60255432 119.00434875 C-1.59060293 111.22921182 -1.55680432 103.45443 -1.50756836 95.67944336 C-1.43808819 84.70014372 -1.40881104 73.72100258 -1.38716781 62.74151933 C-1.36889128 54.22739559 -1.33943456 45.71330482 -1.30859375 37.19921875 C-1.30542231 36.28340774 -1.30225088 35.36759674 -1.29898334 34.42403388 C-1.28020926 29.17130118 -1.25589705 23.91865014 -1.22286797 18.66598701 C-1.21351907 17.07159191 -1.20585574 15.47718595 -1.19995499 13.88277435 C-1.19154923 11.71575027 -1.17697521 9.54885831 -1.16062927 7.38188171 C-1.15375815 6.16645534 -1.14688704 4.95102896 -1.1398077 3.69877148 C-1 1 -1 1 0 0 Z " fill="#961A16" transform="translate(235,42)"/>
<path d="M0 0 C0.33 0 0.66 0 1 0 C1.18368548 5.32687887 0.72572032 8.93069656 -1 14 C-1 15.216875 -1 16.43375 -1 17.6875 C-1 21 -1 21 -3 24 C-3.42114198 26.67197035 -3.42114198 26.67197035 -3.5625 29.5625 C-3.90381679 34.80763359 -3.90381679 34.80763359 -5 37 C-5.09939135 39.99224226 -5.13979359 42.96070286 -5.1328125 45.953125 C-5.13424759 47.29259186 -5.13424759 47.29259186 -5.13571167 48.65911865 C-5.13639307 50.55220612 -5.13454159 52.44529591 -5.13037109 54.33837891 C-5.12504734 57.224338 -5.13030442 60.11013968 -5.13671875 62.99609375 C-5.13605747 64.83593784 -5.13477527 66.67578184 -5.1328125 68.515625 C-5.13483673 69.37520813 -5.13686096 70.23479126 -5.13894653 71.12042236 C-5.12181933 75.54296257 -4.77440341 79.63370025 -4 84 C-4.4375 87.375 -4.4375 87.375 -5 90 C-5.33 90 -5.66 90 -6 90 C-7.89799984 78.57514657 -9.07427771 67.39167528 -9.125 55.8125 C-9.12967285 55.05678711 -9.1343457 54.30107422 -9.13916016 53.52246094 C-9.12305362 48.12305362 -9.12305362 48.12305362 -8 47 C-8.00617846 45.52025949 -8.05750168 44.04071315 -8.125 42.5625 C-8.21905723 28.00244045 -4.13788148 13.83655231 0 0 Z " fill="#222792" transform="translate(49,160)"/>
<path d="M0 0 C0.33 0 0.66 0 1 0 C1.11676331 21.81806052 1.2049539 43.63606958 1.25906086 65.45437908 C1.28485062 75.58484525 1.32001593 85.71511736 1.37719727 95.84545898 C1.42700856 104.67431431 1.4592854 113.50302912 1.47044247 122.33202106 C1.47696509 127.00766919 1.49231104 131.6829153 1.52865028 136.35843468 C1.5625739 140.75877931 1.57306038 145.15855611 1.56553841 149.55901909 C1.56691459 151.17434525 1.57686908 152.78969028 1.59602737 154.40490341 C1.62091079 156.61089931 1.61492517 158.81475216 1.60127258 161.02079773 C1.60818603 162.87221894 1.60818603 162.87221894 1.61523914 164.76104259 C0.82913839 168.89950952 -0.85280988 170.3016915 -4 173 C-5.02813611 174.31175986 -6.04084432 175.6369893 -7 177 C-7.66 175.02 -8.32 173.04 -9 171 C-8.05125 170.38125 -7.1025 169.7625 -6.125 169.125 C-3.05554891 167.18029031 -3.05554891 167.18029031 -1 165 C-0.68379449 162.03856067 -0.68379449 162.03856067 -0.7215271 158.49545288 C-0.7157347 157.81995789 -0.7099423 157.1444629 -0.70397437 156.44849837 C-0.68690571 154.17443949 -0.68409204 151.90058271 -0.68115234 149.62646484 C-0.67185888 148.00056964 -0.66169109 146.37467924 -0.65071106 144.74879456 C-0.62333128 140.32551054 -0.60823812 135.9022585 -0.59528303 131.47891188 C-0.57968727 126.85973394 -0.5528858 122.24062166 -0.5272522 117.62149048 C-0.48040127 108.87029619 -0.44368779 100.11908963 -0.41057932 91.36783373 C-0.37240245 81.40663046 -0.32298074 71.44549303 -0.27259517 61.4843452 C-0.16918144 40.98961204 -0.07995183 20.49483723 0 0 Z " fill="#00011B" transform="translate(196,44)"/>
<path d="M0 0 C0 3 0 3 -2.203125 5.27734375 C-3.21253241 6.17113398 -4.22866288 7.05736662 -5.25 7.9375 C-6.34706253 8.91310854 -7.44204904 9.89105557 -8.53515625 10.87109375 C-9.10379395 11.3801123 -9.67243164 11.88913086 -10.25830078 12.41357422 C-13.13912767 15.03757382 -15.92124841 17.75611133 -18.6875 20.5 C-19.2040918 21.00394287 -19.72068359 21.50788574 -20.25292969 22.02709961 C-22.57866056 24.34537118 -23.94569259 25.83707778 -25 29 C-24.236875 29.2475 -23.47375 29.495 -22.6875 29.75 C-19.7635955 31.10995558 -18.69995644 32.31585826 -17 35 C-17.66 35 -18.32 35 -19 35 C-18.505 35.78375 -18.01 36.5675 -17.5 37.375 C-16 40 -16 40 -16 42 C-14.515 41.505 -14.515 41.505 -13 41 C-12.401875 41.66 -11.80375 42.32 -11.1875 43 C-9.12498166 45.3373846 -9.12498166 45.3373846 -6 45 C-6.33 45.99 -6.66 46.98 -7 48 C-16.24184287 44.68848043 -24.301452 37.9776961 -32 32 C-30.53648361 28.5076937 -28.68277906 26.62507368 -25.8125 24.1875 C-20.38209988 19.4378789 -15.31749292 14.37876392 -10.2668457 9.22924805 C-6.99468187 5.91301175 -3.72628072 2.81777799 0 0 Z " fill="#FBFB08" transform="translate(136,319)"/>
<path d="M0 0 C3.3 0 6.6 0 10 0 C10 0.66 10 1.32 10 2 C13.96 2 17.92 2 22 2 C22 2.66 22 3.32 22 4 C33.22 4 44.44 4 56 4 C56 3.34 56 2.68 56 2 C57.12019531 1.93941406 58.24039063 1.87882812 59.39453125 1.81640625 C60.86719984 1.73198576 62.33985544 1.64733851 63.8125 1.5625 C64.55048828 1.52318359 65.28847656 1.48386719 66.04882812 1.44335938 C69.23071342 1.25618965 71.96162378 1.01279207 75 0 C77.33299825 -0.03954234 79.66708189 -0.04401732 82 0 C69.24484523 6.93755536 51.72638958 6.39151548 37.5 6.375 C35.52519653 6.37717529 35.52519653 6.37717529 33.51049805 6.37939453 C26.96667783 6.30439614 21.26159636 5.87847891 15 4 C12.3424877 3.41180911 9.67151465 2.89549391 7 2.375 C6.32066406 2.2409375 5.64132813 2.106875 4.94140625 1.96875 C3.29462489 1.64403255 1.64736357 1.3217507 0 1 C0 0.67 0 0.34 0 0 Z " fill="#E1E33F" transform="translate(174,385)"/>
<path d="M0 0 C4.9723422 1.49170266 9.41845739 3.60457417 14 6 C14 6.66 14 7.32 14 8 C15.01126953 8.09474609 15.01126953 8.09474609 16.04296875 8.19140625 C20.0994168 9.30063313 22.95203603 11.46992965 26.3125 13.9375 C26.95767578 14.39318359 27.60285156 14.84886719 28.26757812 15.31835938 C29.88740999 16.489095 31.44942175 17.73897492 33 19 C33 19.66 33 20.32 33 21 C33.53625 21.061875 34.0725 21.12375 34.625 21.1875 C38.1126938 22.3806584 40.32879992 24.50687993 43 27 C43.495 28.485 43.495 28.485 44 30 C43.236875 29.690625 42.47375 29.38125 41.6875 29.0625 C39.81210323 28.32106407 37.91315348 27.63771783 36 27 C35.67 25.35 35.34 23.7 35 22 C34.01 22 33.02 22 32 22 C32 21.34 32 20.68 32 20 C30.68 20.33 29.36 20.66 28 21 C27.34 19.68 26.68 18.36 26 17 C25.34 17 24.68 17 24 17 C24 16.34 24 15.68 24 15 C21.03 14.505 21.03 14.505 18 14 C17.67 13.01 17.34 12.02 17 11 C15.35 10.67 13.7 10.34 12 10 C11.67 9.01 11.34 8.02 11 7 C10.34 7 9.68 7 9 7 C9 6.34 9 5.68 9 5 C6.03 4.01 3.06 3.02 0 2 C0 1.34 0 0.68 0 0 Z " fill="#B7191B" transform="translate(288,58)"/>
<path d="M0 0 C0.66 0 1.32 0 2 0 C-0.93023989 16.70236739 -9.56314542 32.45111299 -18 47 C-18.66 47 -19.32 47 -20 47 C-20.33 47.99 -20.66 48.98 -21 50 C-21.6875 48.1875 -21.6875 48.1875 -22 46 C-20.6875 44.25 -20.6875 44.25 -19 43 C-18.34 43 -17.68 43 -17 43 C-16.67 40.36 -16.34 37.72 -16 35 C-15.34 35 -14.68 35 -14 35 C-13.34 33.35 -12.68 31.7 -12 30 C-11.34 30 -10.68 30 -10 30 C-10.33 27.69 -10.66 25.38 -11 23 C-10.34 23 -9.68 23 -9 23 C-9 22.34 -9 21.68 -9 21 C-8.34 20.67 -7.68 20.34 -7 20 C-6.7834375 18.576875 -6.7834375 18.576875 -6.5625 17.125 C-6 14 -6 14 -4.5703125 12.66015625 C-2.43927437 10.40719305 -2.05103626 8.30181345 -1.3125 5.3125 C-1.06113281 4.31863281 -0.80976563 3.32476562 -0.55078125 2.30078125 C-0.36902344 1.54152344 -0.18726563 0.78226562 0 0 Z " fill="#AD1D1C" transform="translate(381,263)"/>
<path d="M0 0 C2.32782125 2.32782125 2.65088594 3.79485504 3.5 6.9375 C4.38221837 10.19307756 5.09757851 12.14636776 7 15 C7.3784511 16.32123565 7.70977992 17.65662321 8 19 C8.38150377 20.3760908 8.76713121 21.7510431 9.15625 23.125 C11.64325033 32.0850149 13.79445296 40.63826659 14 50 C13.34 50 12.68 50 12 50 C11.27946931 47.52960907 10.93043198 45.26257895 10.6875 42.6875 C10.1322689 37.83605453 8.7541141 33.21400601 7.45092773 28.52392578 C6.21252741 23.99664966 5.38130563 19.67099395 5 15 C4.34 15 3.68 15 3 15 C2.80664062 14.28972656 2.61328125 13.57945312 2.4140625 12.84765625 C2.15367187 11.92855469 1.89328125 11.00945312 1.625 10.0625 C1.36976563 9.14597656 1.11453125 8.22945312 0.8515625 7.28515625 C0.23339896 4.83254913 0.23339896 4.83254913 -2 4 C-1.34 4 -0.68 4 0 4 C0 2.68 0 1.36 0 0 Z " fill="#B3191C" transform="translate(374,145)"/>
<path d="M0 0 C0.66 0 1.32 0 2 0 C1.98839844 0.85464844 1.97679687 1.70929688 1.96484375 2.58984375 C1.95582031 3.69457031 1.94679688 4.79929688 1.9375 5.9375 C1.92589844 7.03964844 1.91429687 8.14179688 1.90234375 9.27734375 C1.68737429 11.91447634 1.68737429 11.91447634 3 13 C3.07271741 15.35313555 3.08370868 17.70833668 3.0625 20.0625 C3.05347656 21.35285156 3.04445313 22.64320313 3.03515625 23.97265625 C3.02355469 24.97167969 3.01195312 25.97070312 3 27 C2.34 27 1.68 27 1 27 C1.17273438 27.66 1.34546875 28.32 1.5234375 29 C2.11481183 32.72274989 1.90072822 36.26388256 1.625 40 C1.58117187 40.69867188 1.53734375 41.39734375 1.4921875 42.1171875 C1.24088241 45.8169569 0.83309481 49.38521576 0 53 C-0.33 53 -0.66 53 -1 53 C-0.67 35.51 -0.34 18.02 0 0 Z " fill="#AE1A1A" transform="translate(387,196)"/>
<path d="M0 0 C1.27690182 0.76997263 2.54753493 1.55041391 3.8125 2.33984375 C4.43310303 2.72285645 5.05370605 3.10586914 5.69311523 3.50048828 C7.5549418 4.66178463 9.403759 5.84145138 11.25 7.02734375 C11.88615234 7.43017578 12.52230469 7.83300781 13.17773438 8.24804688 C14.74105369 9.25051909 16.27948739 10.29161183 17.8125 11.33984375 C17.8125 11.66984375 17.8125 11.99984375 17.8125 12.33984375 C15.1725 12.33984375 12.5325 12.33984375 9.8125 12.33984375 C9.4825 11.34984375 9.1525 10.35984375 8.8125 9.33984375 C5.3475 10.82484375 5.3475 10.82484375 1.8125 12.33984375 C1.8125 11.34984375 1.8125 10.35984375 1.8125 9.33984375 C1.17735174 6.99773454 0.5138284 4.66299406 -0.1875 2.33984375 C-0.8475 2.33984375 -1.5075 2.33984375 -2.1875 2.33984375 C-2.5175 2.99984375 -2.8475 3.65984375 -3.1875 4.33984375 C-4.1775 4.00984375 -5.1675 3.67984375 -6.1875 3.33984375 C-6.5175 2.34984375 -6.8475 1.35984375 -7.1875 0.33984375 C-4.19227162 -2.05633895 -3.47295007 -1.80882816 0 0 Z " fill="#0A0506" transform="translate(111.1875,355.66015625)"/>
<path d="M0 0 C0.66 0 1.32 0 2 0 C2 0.99 2 1.98 2 3 C2.94978897 5.15028304 2.94978897 5.15028304 4 7 C3.01 7 2.02 7 1 7 C0.896875 7.639375 0.79375 8.27875 0.6875 8.9375 C0.460625 9.618125 0.23375 10.29875 0 11 C-0.99 11.33 -1.98 11.66 -3 12 C-3.33 12.99 -3.66 13.98 -4 15 C-6.0625 15.6875 -6.0625 15.6875 -8 16 C-8.12375 16.57621094 -8.2475 17.15242188 -8.375 17.74609375 C-9.01484803 20.0535457 -9.89027909 21.94505458 -11 24.0625 C-12.21973475 26.39883016 -13.16101823 28.4830547 -14 31 C-14.99 31.33 -15.98 31.66 -17 32 C-15.32881716 25.81662349 -12.16444658 20.51613004 -9 15 C-8.6282666 14.35095703 -8.2565332 13.70191406 -7.87353516 13.03320312 C-6.6759706 10.95345383 -5.4653702 8.88188765 -4.25 6.8125 C-3.86126709 6.14033447 -3.47253418 5.46816895 -3.07202148 4.77563477 C-2.10440418 3.14886379 -1.05871198 1.56901115 0 0 Z " fill="#1917C6" transform="translate(73,113)"/>
<path d="M0 0 C3.22763078 2.42072308 3.50159708 4.80941213 4.25 8.6875 C4.25 9.6775 4.25 10.6675 4.25 11.6875 C2.375 11.5625 2.375 11.5625 0.25 10.6875 C-1 7.625 -1 7.625 -1.75 4.6875 C-6.07046898 6.10430244 -8.75461199 8.22513785 -12.0625 11.3125 C-12.94550781 12.12976563 -13.82851562 12.94703125 -14.73828125 13.7890625 C-15.40214844 14.41554688 -16.06601563 15.04203125 -16.75 15.6875 C-17.41 15.0275 -18.07 14.3675 -18.75 13.6875 C-16.4375 11.1875 -16.4375 11.1875 -13.75 8.6875 C-12.76 8.6875 -11.77 8.6875 -10.75 8.6875 C-10.54375 7.945 -10.3375 7.2025 -10.125 6.4375 C-7.97684075 2.1411815 -4.96089661 -0.56373825 0 0 Z " fill="#0B0501" transform="translate(194.75,263.3125)"/>
<path d="M0 0 C7.42461964 1.46058091 7.42461964 1.46058091 10 3.875 C11 6 11 6 11 10 C12.4166747 11.7511573 12.4166747 11.7511573 14 13 C13.67 13.66 13.34 14.32 13 15 C12.67 14.01 12.34 13.02 12 12 C11.360625 11.690625 10.72125 11.38125 10.0625 11.0625 C8 10 8 10 7.0625 8 C5.60163333 5.25013332 3.88694538 4.91166696 1 4 C0.566875 5.423125 0.566875 5.423125 0.125 6.875 C-1 10 -1 10 -3 12 C-4.5625 10.75 -4.5625 10.75 -6 9 C-5.6875 6.8125 -5.6875 6.8125 -5 5 C-4.01 5 -3.02 5 -2 5 C-2.33 4.34 -2.66 3.68 -3 3 C-2.34 3 -1.68 3 -1 3 C-0.67 2.01 -0.34 1.02 0 0 Z " fill="#0A050A" transform="translate(238,264)"/>
<path d="M0 0 C2.36581411 2.95976231 4.06471124 5.93699496 5.69921875 9.3515625 C6.18583984 10.36734375 6.67246094 11.383125 7.17382812 12.4296875 C7.67333984 13.48414063 8.17285156 14.53859375 8.6875 15.625 C9.19861328 16.6871875 9.70972656 17.749375 10.23632812 18.84375 C14 26.7429385 14 26.7429385 14 29 C13.34 29 12.68 29 12 29 C10.35 26.03 8.7 23.06 7 20 C6.67 20 6.34 20 6 20 C5.89042969 19.43410156 5.78085938 18.86820312 5.66796875 18.28515625 C5.50941406 17.55167969 5.35085937 16.81820313 5.1875 16.0625 C5.03667969 15.33160156 4.88585937 14.60070312 4.73046875 13.84765625 C4.48941406 13.23792969 4.24835938 12.62820313 4 12 C3.01 11.67 2.02 11.34 1 11 C1 11.99 1 12.98 1 14 C0.34 14 -0.32 14 -1 14 C-1 13.34 -1 12.68 -1 12 C-1.66 11.67 -2.32 11.34 -3 11 C-2.690625 9.9275 -2.38125 8.855 -2.0625 7.75 C-1.33187904 5.17133778 -0.62517096 2.60487898 0 0 Z " fill="#F7F72D" transform="translate(195,274)"/>
<path d="M0 0 C6.97341979 0.81356564 13.08352402 2.31303693 19.75 4.5625 C20.79607422 4.91344727 20.79607422 4.91344727 21.86328125 5.27148438 C23.5759787 5.84629379 25.28805186 6.42296275 27 7 C27 7.66 27 8.32 27 9 C28.98 9 30.96 9 33 9 C32.67 9.66 32.34 10.32 32 11 C29.36 10.67 26.72 10.34 24 10 C23.67 10.99 23.34 11.98 23 13 C22.34 13 21.68 13 21 13 C21 12.01 21 11.02 21 10 C20.34 10 19.68 10 19 10 C19 9.34 19 8.68 19 8 C18.01 8 17.02 8 16 8 C15.34 7.01 14.68 6.02 14 5 C11.44991892 4.309198 11.44991892 4.309198 8.5625 4 C4.63973141 3.49855422 2.52376096 3.14828486 0 0 Z " fill="#CF0E11" transform="translate(249,45)"/>
<path d="M0 0 C1.67542976 0.28604898 3.34385343 0.61781233 5 1 C2.96273752 4.66594534 0.75255111 7.48507372 -2.23046875 10.42578125 C-3.03291016 11.22177734 -3.83535156 12.01777344 -4.66210938 12.83789062 C-5.49548828 13.65451172 -6.32886719 14.47113281 -7.1875 15.3125 C-8.03248047 16.14845703 -8.87746094 16.98441406 -9.74804688 17.84570312 C-11.82757725 19.90173598 -13.91163963 21.95294296 -16 24 C-16.66 23.34 -17.32 22.68 -18 22 C-17.175 21.443125 -16.35 20.88625 -15.5 20.3125 C-12.7254586 18.25072867 -12.7254586 18.25072867 -12.6875 15.25 C-12.790625 14.5075 -12.89375 13.765 -13 13 C-10.69 12.34 -8.38 11.68 -6 11 C-5.855625 10.38125 -5.71125 9.7625 -5.5625 9.125 C-5 7 -5 7 -4 5 C-3.34 5 -2.68 5 -2 5 C-1.855625 4.360625 -1.71125 3.72125 -1.5625 3.0625 C-1 1 -1 1 0 0 Z " fill="#1312BF" transform="translate(183,213)"/>
<path d="M0 0 C1.32 0 2.64 0 4 0 C4 0.66 4 1.32 4 2 C5.32 2.33 6.64 2.66 8 3 C8.33 2.01 8.66 1.02 9 0 C9.66 0.66 10.32 1.32 11 2 C-5.19047619 15 -5.19047619 15 -11 15 C-10.40138258 12.64828869 -9.73075648 10.3140622 -9 8 C-8.34 7.67 -7.68 7.34 -7 7 C-6.67 7.66 -6.34 8.32 -6 9 C-4.35 9 -2.7 9 -1 9 C-0.67 6.03 -0.34 3.06 0 0 Z " fill="#F6F628" transform="translate(308,354)"/>
<path d="M0 0 C0 3 0 3 -2.203125 5.27734375 C-3.21244839 6.17122885 -4.22858538 7.05745656 -5.25 7.9375 C-6.34715495 8.91169936 -7.44213834 9.88834878 -8.53515625 10.8671875 C-9.10379395 11.37604492 -9.67243164 11.88490234 -10.25830078 12.40917969 C-13.14703855 15.04767356 -15.92207772 17.79581228 -18.6875 20.5625 C-19.2040918 21.07482178 -19.72068359 21.58714355 -20.25292969 22.11499023 C-22.96558302 24.80164482 -22.96558302 24.80164482 -25 28 C-25.66 28 -26.32 28 -27 28 C-27.33 28.99 -27.66 29.98 -28 31 C-27.34 31.33 -26.68 31.66 -26 32 C-25.375 34.0625 -25.375 34.0625 -25 36 C-27.49361571 34.79618552 -29.68143083 33.54571278 -32 32 C-30.53648361 28.5076937 -28.68277906 26.62507368 -25.8125 24.1875 C-20.38209988 19.4378789 -15.31749292 14.37876392 -10.2668457 9.22924805 C-6.99468187 5.91301175 -3.72628072 2.81777799 0 0 Z " fill="#F1F44F" transform="translate(136,319)"/>
<path d="M0 0 C0.33 0 0.66 0 1 0 C1 1.98 1 3.96 1 6 C2.98 6.66 4.96 7.32 7 8 C7 8.66 7 9.32 7 10 C5.68 10.33 4.36 10.66 3 11 C2.67 12.98 2.34 14.96 2 17 C0.68 17 -0.64 17 -2 17 C-2.33 17.99 -2.66 18.98 -3 20 C-5.17067498 15.65865003 -3.71270266 9.20221352 -2.26171875 4.71875 C-1.56947738 3.11773677 -0.79383182 1.55314922 0 0 Z " fill="#0302F3" transform="translate(53,150)"/>
<path d="M0 0 C0.66 0 1.32 0 2 0 C2.33 1.32 2.66 2.64 3 4 C0.36 4.66 -2.28 5.32 -5 6 C-4.67 6.99 -4.34 7.98 -4 9 C-6.57230841 11.02109946 -9.06294472 12.5759732 -12 14 C-12.845625 14.53625 -13.69125 15.0725 -14.5625 15.625 C-17 17 -17 17 -20 17 C-17.92569173 14.84475774 -15.84146179 12.70098609 -13.75 10.5625 C-12.87021484 9.64500977 -12.87021484 9.64500977 -11.97265625 8.70898438 C-11.39902344 8.12568359 -10.82539062 7.54238281 -10.234375 6.94140625 C-9.44885254 6.13231812 -9.44885254 6.13231812 -8.64746094 5.30688477 C-6.77311354 3.8200173 -5.31105756 3.50350162 -3 3 C-1.9805881 2.01979625 -0.97753644 1.02196992 0 0 Z " fill="#100FD0" transform="translate(107,80)"/>
<path d="M0 0 C3.80833452 3.5922588 6.86748467 7.37069338 9.75 11.75 C10.17321533 12.3896167 10.59643066 13.0292334 11.0324707 13.68823242 C14.32749909 18.76564669 17.32461261 23.98074234 20.1875 29.3125 C20.78546387 30.41513184 20.78546387 30.41513184 21.39550781 31.54003906 C22.33046179 33.32663429 23.17455092 35.16024587 24 37 C23.67 37.66 23.34 38.32 23 39 C20.44624385 35.82505993 18.62552847 32.51896339 16.8125 28.875 C16.28269531 27.82054687 15.75289063 26.76609375 15.20703125 25.6796875 C14 23 14 23 14 21 C13.34 21 12.68 21 12 21 C11.67 19.35 11.34 17.7 11 16 C10.01 15.67 9.02 15.34 8 15 C4.85706726 11.6774711 4 10.70264718 4 6 C3.34 6 2.68 6 2 6 C1.34 4.02 0.68 2.04 0 0 Z " fill="#A21C1D" transform="translate(350,106)"/>
<path d="M0 0 C0.66 1.98 1.32 3.96 2 6 C-0.76276177 5.47731534 -3.3260876 4.89130413 -6 4 C-5.67 4.99 -5.34 5.98 -5 7 C-5.33 7.99 -5.66 8.98 -6 10 C-7.9609375 10.94921875 -7.9609375 10.94921875 -10.375 11.6875 C-11.16648438 11.93886719 -11.95796875 12.19023437 -12.7734375 12.44921875 C-15 13 -15 13 -18 13 C-15.76528312 10.81708711 -13.5099187 8.65678749 -11.25 6.5 C-10.61578125 5.87996094 -9.9815625 5.25992187 -9.328125 4.62109375 C-8.709375 4.03457031 -8.090625 3.44804687 -7.453125 2.84375 C-6.88754883 2.29912109 -6.32197266 1.75449219 -5.73925781 1.19335938 C-4 0 -4 0 0 0 Z " fill="#F8F81A" transform="translate(193,268)"/>
<path d="M0 0 C0 3.16820458 -0.62797454 4.25594908 -2 7 C-2 7.99 -2 8.98 -2 10 C-2.99 9.67 -3.98 9.34 -5 9 C-7.33132645 10.24516181 -7.33132645 10.24516181 -9.625 12.125 C-10.42164063 12.72570312 -11.21828125 13.32640625 -12.0390625 13.9453125 C-14.31896124 16.33421039 -14.53569778 17.79791573 -15 21 C-16.8125 22.375 -16.8125 22.375 -19 23 C-20.34346425 22.71018504 -21.67977235 22.38195265 -23 22 C-10.84425451 9.66191833 -10.84425451 9.66191833 -4.62109375 4.40234375 C-3.00223886 3.00193675 -1.49481669 1.53116482 0 0 Z " fill="#F0F152" transform="translate(166,290)"/>
<path d="M0 0 C3.72464635 0.87389197 7.2740705 2.10839922 10.87890625 3.37890625 C13.11149169 4.14050893 13.11149169 4.14050893 16 4 C16.33 3.34 16.66 2.68 17 2 C19.0245738 3.93254772 20.42105792 5.63158688 22 8 C22 8.66 22 9.32 22 10 C22.99 10 23.98 10 25 10 C25 10.66 25 11.32 25 12 C16.11759114 9.4621689 8.17381793 5.22230349 0 1 C0 0.67 0 0.34 0 0 Z M18 3 C20 4 20 4 20 4 Z " fill="#F3F432" transform="translate(129,367)"/>
<path d="M0 0 C1.65 0 3.3 0 5 0 C2.67157261 2.63367854 0.43743006 3.88530951 -2.78125 5.26171875 C-3.70550781 5.65810547 -4.62976563 6.05449219 -5.58203125 6.46289062 C-6.54496094 6.86701172 -7.50789063 7.27113281 -8.5 7.6875 C-9.46292969 8.10322266 -10.42585938 8.51894531 -11.41796875 8.94726562 C-18.60618073 12 -18.60618073 12 -22 12 C-22 11.34 -22 10.68 -22 10 C-20.865625 9.71125 -19.73125 9.4225 -18.5625 9.125 C-17.386875 8.75375 -16.21125 8.3825 -15 8 C-14.67 7.34 -14.34 6.68 -14 6 C-13.01 6 -12.02 6 -11 6 C-11 5.34 -11 4.68 -11 4 C-10.34 4 -9.68 4 -9 4 C-8.67 3.34 -8.34 2.68 -8 2 C-5.36 2 -2.72 2 0 2 C0 1.34 0 0.68 0 0 Z " fill="#F3F229" transform="translate(292,369)"/>
<path d="M0 0 C5.66129431 4.69766975 10.85228904 9.74723372 16 15 C14.35 16.65 12.7 18.3 11 20 C9.90341064 16.71023192 10.20046862 15.28696233 11 12 C9.68 11.67 8.36 11.34 7 11 C7 10.01 7 9.02 7 8 C5.35 8.33 3.7 8.66 2 9 C1.67 7.68 1.34 6.36 1 5 C0.01 5 -0.98 5 -2 5 C-2 4.34 -2 3.68 -2 3 C-1.34 3 -0.68 3 0 3 C0 2.01 0 1.02 0 0 Z " fill="#F9F72E" transform="translate(310,335)"/>
<path d="M0 0 C2.475 0.495 2.475 0.495 5 1 C5 1.99 5 2.98 5 4 C6.32 4.33 7.64 4.66 9 5 C9.33 4.34 9.66 3.68 10 3 C10.66 3 11.32 3 12 3 C12 3.66 12 4.32 12 5 C13.32 5.33 14.64 5.66 16 6 C15.67 7.65 15.34 9.3 15 11 C13.359375 11.8359375 13.359375 11.8359375 11 12 C8.86378393 10.26357855 7.10657379 8.62288781 5.25 6.625 C4.74339844 6.10421875 4.23679687 5.5834375 3.71484375 5.046875 C0 1.18183541 0 1.18183541 0 0 Z " fill="#F40507" transform="translate(304,275)"/>
<path d="M0 0 C4.47840426 1.3684013 6.25249773 3.27757757 9 7 C10.31494512 8.35147138 11.64264858 9.69112542 13 11 C10 11 10 11 7 10 C7 9.34 7 8.68 7 8 C6.195625 7.855625 5.39125 7.71125 4.5625 7.5625 C2 7 2 7 1 6 C0.319375 6.99 0.319375 6.99 -0.375 8 C-0.91125 8.66 -1.4475 9.32 -2 10 C-2.66 10 -3.32 10 -4 10 C-2.8905928 6.51329166 -1.73662334 3.22515763 0 0 Z " fill="#EFF03D" transform="translate(239,268)"/>
<path d="M0 0 C0 0.66 0 1.32 0 2 C-0.639375 2.12375 -1.27875 2.2475 -1.9375 2.375 C-2.618125 2.58125 -3.29875 2.7875 -4 3 C-4.33 3.66 -4.66 4.32 -5 5 C-5.66644531 4.97679687 -6.33289063 4.95359375 -7.01953125 4.9296875 C-13.1171868 4.81029285 -18.63783953 5.31898299 -24.58984375 6.66015625 C-27.10374227 7.01462816 -28.5911364 6.67893383 -31 6 C-27.9595402 5.18293833 -24.91743317 4.3721798 -21.875 3.5625 C-21.0190625 3.33240234 -20.163125 3.10230469 -19.28125 2.86523438 C-12.79536413 1.14398005 -6.75253759 -0.1607747 0 0 Z " fill="#1E1EA9" transform="translate(193,43)"/>
<path d="M0 0 C0.33 0 0.66 0 1 0 C1.18368548 5.32687887 0.72572032 8.93069656 -1 14 C-1 15.216875 -1 16.43375 -1 17.6875 C-1 21 -1 21 -3 24 C-3.45772063 26.73872955 -3.45772063 26.73872955 -3.625 29.6875 C-3.69976562 30.68136719 -3.77453125 31.67523438 -3.8515625 32.69921875 C-3.90054688 33.45847656 -3.94953125 34.21773437 -4 35 C-4.33 35 -4.66 35 -5 35 C-5.71663364 22.41909829 -3.91594576 11.9576201 0 0 Z " fill="#1614C6" transform="translate(49,160)"/>
<path d="M0 0 C0.66 0 1.32 0 2 0 C2.4125 0.474375 2.825 0.94875 3.25 1.4375 C6.04465617 3.93272872 9.35262317 4 13 4 C13 3.34 13 2.68 13 2 C13.99 2.33 14.98 2.66 16 3 C14.03105863 5.35312505 12.44899917 7.22085837 10 9 C6.375 9.3125 6.375 9.3125 3 8 C1.18366553 5.75221951 0.21288748 3.66835246 -1 1 C-0.67 0.67 -0.34 0.34 0 0 Z " fill="#1413C9" transform="translate(70,311)"/>
<path d="M0 0 C1.32 1.65 2.64 3.3 4 5 C7.39914975 3.86695008 8.05254451 2.87481525 10 0 C9.25 4.75 9.25 4.75 7 7 C6.01 7 5.02 7 4 7 C4 8.65 4 10.3 4 12 C1.69 12 -0.62 12 -3 12 C-3 10.68 -3 9.36 -3 8 C-2.01 7.34 -1.02 6.68 0 6 C0.2502157 2.91634129 0.2502157 2.91634129 0 0 Z " fill="#F8F81F" transform="translate(211,307)"/>
<path d="M0 0 C1.22419163 3.93795909 0.48320272 6.16112237 -1 10 C-0.34 10 0.32 10 1 10 C1 11.65 1 13.3 1 15 C-0.65 15.66 -2.3 16.32 -4 17 C-4 16.01 -4 15.02 -4 14 C-4.99 14.99 -5.98 15.98 -7 17 C-5.1668733 11.00067626 -2.92678249 5.55079437 0 0 Z " fill="#F9F826" transform="translate(234,278)"/>
<path d="M0 0 C-5.61 5.61 -11.22 11.22 -17 17 C-17 13.67941669 -16.56938028 11.91456338 -15 9 C-13.35636866 8.27840576 -11.68949614 7.60648579 -10 7 C-9.67 6.01 -9.34 5.02 -9 4 C-8.34 4 -7.68 4 -7 4 C-6.67 2.68 -6.34 1.36 -6 0 C-2.25 -1.125 -2.25 -1.125 0 0 Z " fill="#1515B6" transform="translate(162,241)"/>
<path d="M0 0 C-1.55367366 1.01365893 -3.11837836 2.01042256 -4.6875 3 C-5.99267578 3.8353125 -5.99267578 3.8353125 -7.32421875 4.6875 C-10.23198524 6.1137913 -11.81385255 6.24706798 -15 6 C-18.11257569 6 -20.10765685 6.17361624 -23 7 C-23.33 6.34 -23.66 5.68 -24 5 C-22.99839844 4.73445313 -21.99679688 4.46890625 -20.96484375 4.1953125 C-19.62238679 3.83857569 -18.27993939 3.48180293 -16.9375 3.125 C-16.28072266 2.95097656 -15.62394531 2.77695312 -14.94726562 2.59765625 C-13.9659668 2.33662109 -13.9659668 2.33662109 -12.96484375 2.0703125 C-12.3085498 1.89661133 -11.65225586 1.72291016 -10.97607422 1.54394531 C-9.64890036 1.17861997 -8.32738192 0.79215094 -7.01220703 0.38574219 C-2.19872334 -1.09936167 -2.19872334 -1.09936167 0 0 Z " fill="#0A0A00" transform="translate(269,383)"/>
<path d="M0 0 C0.33 0 0.66 0 1 0 C1.02505615 0.8470752 1.0501123 1.69415039 1.07592773 2.56689453 C1.17147857 5.73155558 1.27068566 8.89607563 1.37231445 12.06054688 C1.41543088 13.42606176 1.45712068 14.79162252 1.49731445 16.15722656 C1.55558554 18.1283719 1.61953736 20.09934668 1.68359375 22.0703125 C1.72025146 23.25383301 1.75690918 24.43735352 1.79467773 25.65673828 C1.939936 28.99330801 1.939936 28.99330801 2.54711914 32.22216797 C3.06408963 35.39310612 2.66929649 37.8766164 2 41 C1.67 41 1.34 41 1 41 C0.05135075 36.22721102 -0.13171421 31.60534023 -0.09765625 26.7578125 C-0.0962413 25.98944061 -0.09482635 25.22106873 -0.09336853 24.42941284 C-0.08780683 21.99456761 -0.0752616 19.55981706 -0.0625 17.125 C-0.05748004 15.46614717 -0.05291801 13.80729288 -0.04882812 12.1484375 C-0.03784998 8.0989223 -0.02061206 4.04947716 0 0 Z " fill="#0706D1" transform="translate(42,209)"/>
<path d="M0 0 C4.455 1.98 4.455 1.98 9 4 C9 4.66 9 5.32 9 6 C9.53625 6.061875 10.0725 6.12375 10.625 6.1875 C14.1126938 7.3806584 16.32879992 9.50687993 19 12 C19.33 12.99 19.66 13.98 20 15 C19.236875 14.690625 18.47375 14.38125 17.6875 14.0625 C15.81210323 13.32106407 13.91315348 12.63771783 12 12 C11.67 10.35 11.34 8.7 11 7 C10.01 7 9.02 7 8 7 C8 6.34 8 5.68 8 5 C6.68 5.33 5.36 5.66 4 6 C3.34 4.68 2.68 3.36 2 2 C1.34 2 0.68 2 0 2 C0 1.34 0 0.68 0 0 Z " fill="#CD151C" transform="translate(312,73)"/>
<path d="M0 0 C0.21914063 0.56847656 0.43828125 1.13695312 0.6640625 1.72265625 C2.98513842 7.37438177 5.76256181 11.60718908 10 16 C5.67495164 14.34136495 2.90581175 11.128959 -0.25 7.875 C-0.80429687 7.31167969 -1.35859375 6.74835938 -1.9296875 6.16796875 C-3.29104485 4.78313972 -4.64614859 3.39216796 -6 2 C-3 0 -3 0 0 0 Z " fill="#C71614" transform="translate(325,288)"/>
<path d="M0 0 C4.52615993 3.67832017 8.39424999 7.41086363 12 12 C10.576875 11.4740625 10.576875 11.4740625 9.125 10.9375 C6.12939828 9.64973223 6.12939828 9.64973223 4 11 C4 10.01 4 9.02 4 8 C3.34 8 2.68 8 2 8 C2 7.34 2 6.68 2 6 C1.01 6 0.02 6 -1 6 C-0.67 4.02 -0.34 2.04 0 0 Z " fill="#F7F829" transform="translate(282,308)"/>
<path d="M0 0 C3 1 3 1 5 3 C7.45530809 3.61101433 7.45530809 3.61101433 10.25 4 C14.33392676 4.67618236 18.11368184 5.52950124 22 7 C18.92677456 7.91058531 16.19902639 8.08886184 13 8 C13 7.34 13 6.68 13 6 C6.07 5.505 6.07 5.505 -1 5 C-1.33 4.01 -1.66 3.02 -2 2 C-1.34 1.34 -0.68 0.68 0 0 Z " fill="#180101" transform="translate(235,38)"/>
<path d="M0 0 C0.33 0.66 0.66 1.32 1 2 C0.28735352 3.69580078 0.28735352 3.69580078 -0.87109375 5.6953125 C-1.28037109 6.41074219 -1.68964844 7.12617188 -2.11132812 7.86328125 C-2.54896484 8.60964844 -2.98660156 9.35601562 -3.4375 10.125 C-3.87126953 10.87910156 -4.30503906 11.63320313 -4.75195312 12.41015625 C-5.82748966 14.27757134 -6.91284139 16.13932697 -8 18 C-8.66 18 -9.32 18 -10 18 C-10.33 18.99 -10.66 19.98 -11 21 C-11.6875 19.1875 -11.6875 19.1875 -12 17 C-10.6875 15.25 -10.6875 15.25 -9 14 C-8.34 14 -7.68 14 -7 14 C-6.67 11.36 -6.34 8.72 -6 6 C-5.34 6 -4.68 6 -4 6 C-3.71125 5.195625 -3.4225 4.39125 -3.125 3.5625 C-2 1 -2 1 0 0 Z " fill="#B21E20" transform="translate(371,292)"/>
<path d="M0 0 C-1.28965176 1.37562854 -2.62689293 2.70766393 -4 4 C-4.66 4 -5.32 4 -6 4 C-6.2475 4.598125 -6.495 5.19625 -6.75 5.8125 C-8.16370012 8.28647521 -9.65055383 9.43370255 -12 11 C-12.125 8.625 -12.125 8.625 -12 6 C-11.34 5.34 -10.68 4.68 -10 4 C-9.01 4 -8.02 4 -7 4 C-7 2.68 -7 1.36 -7 0 C-3.86650268 -1.04449911 -3.01031744 -0.93423645 0 0 Z " fill="#100FD0" transform="translate(134,268)"/>
<path d="M0 0 C0.33 0 0.66 0 1 0 C1.11624638 8.73139464 0.89115181 17.31126982 0 26 C-2 24 -2 24 -2.265625 21.85546875 C-2.22211544 14.42621088 -1.30155588 7.30963081 0 0 Z " fill="#211FA4" transform="translate(43,183)"/>
<path d="M0 0 C2.97 0.495 2.97 0.495 6 1 C2.71260831 3.73949307 -0.70565274 6.26584559 -4.1875 8.75 C-5.47720703 9.67039062 -5.47720703 9.67039062 -6.79296875 10.609375 C-9 12 -9 12 -11 12 C-10.81640625 10.1953125 -10.81640625 10.1953125 -10 8 C-7.71484375 6.3671875 -7.71484375 6.3671875 -4.9375 4.875 C-3.26267203 3.96829089 -1.60760477 3.02116455 0 2 C0 1.34 0 0.68 0 0 Z " fill="#020418" transform="translate(121,64)"/>
<path d="M0 0 C0 3.10551666 -0.5393715 4.35261084 -2 7 C-2.99 7 -3.98 7 -5 7 C-5 6.34 -5 5.68 -5 5 C-5.66 4.67 -6.32 4.34 -7 4 C-4.69 2.68 -2.38 1.36 0 0 Z M-9 5 C-8.34 5.33 -7.68 5.66 -7 6 C-7.33 7.32 -7.66 8.64 -8 10 C-9.98 10 -11.96 10 -14 10 C-14.33 9.34 -14.66 8.68 -15 8 C-13.03533587 6.93224776 -11.03144641 5.93446535 -9 5 Z " fill="#110B02" transform="translate(303,366)"/>
<path d="M0 0 C2.31 0.66 4.62 1.32 7 2 C8.10844919 5.32534757 7.84454356 7.62182575 7 11 C7.66 11 8.32 11 9 11 C9 11.66 9 12.32 9 13 C5.21429586 11.73809862 4.78168429 10.45144185 2.8125 7.0625 C2.28269531 6.16660156 1.75289062 5.27070313 1.20703125 4.34765625 C0 2 0 2 0 0 Z " fill="#1B1DB7" transform="translate(61,298)"/>
<path d="M0 0 C-0.99 0.33 -1.98 0.66 -3 1 C-3.69040574 2.65697379 -4.3530635 4.3255761 -5 6 C-6.28667172 7.70294787 -7.61096733 9.37946188 -9 11 C-9.92117061 7.39906035 -10.28640374 5.61372229 -8.6875 2.1875 C-5.84931065 -1.49163434 -4.27795681 -1.0132003 0 0 Z " fill="#020510" transform="translate(76,112)"/>
<path d="M0 0 C1.09731445 0.01353516 1.09731445 0.01353516 2.21679688 0.02734375 C3.99884298 0.05063847 5.78071759 0.0864981 7.5625 0.125 C7.2325 0.785 6.9025 1.445 6.5625 2.125 C4.19140625 2.46875 4.19140625 2.46875 1.125 2.625 C-4.53518484 2.99782655 -9.91262833 3.86601376 -15.4375 5.125 C-15.4375 4.135 -15.4375 3.145 -15.4375 2.125 C-10.12218311 0.35089949 -5.58131195 -0.1327668 0 0 Z " fill="#01011E" transform="translate(186.4375,41.875)"/>
<path d="M0 0 C2.31 0.33 4.62 0.66 7 1 C7.66 2.65 8.32 4.3 9 6 C9.99 5.67 10.98 5.34 12 5 C12.8971875 5.99 12.8971875 5.99 13.8125 7 C15.87501834 9.3373846 15.87501834 9.3373846 19 9 C18.67 9.99 18.34 10.98 18 12 C13.83740241 10.5199653 10.41490692 8.4553071 6.75 6 C5.69296875 5.29875 4.6359375 4.5975 3.546875 3.875 C1 2 1 2 0 0 Z " fill="#F3F536" transform="translate(111,355)"/>
<path d="M0 0 C0 4.0479181 -1.49297679 5.04613442 -4.1875 8 C-4.96480469 8.86625 -5.74210938 9.7325 -6.54296875 10.625 C-8.90635654 12.90948295 -11.14568803 14.40409246 -14 16 C-15.75149165 17.58245275 -15.75149165 17.58245275 -17 19 C-17.66 18.67 -18.32 18.34 -19 18 C-14.98445593 13.85060446 -10.71700293 10.01958504 -6.40234375 6.18359375 C-4.19974259 4.18155465 -2.08496952 2.1234909 0 0 Z " fill="#020421" transform="translate(154,248)"/>
<path d="M0 0 C2.475 0.495 2.475 0.495 5 1 C5 2.32 5 3.64 5 5 C6.32 5 7.64 5 9 5 C9 5.99 9 6.98 9 8 C9.99 8.33 10.98 8.66 12 9 C13.84499398 10.87617698 15.3683599 12.92737609 17 15 C16.67 15.66 16.34 16.32 16 17 C15.33613281 16.32453125 14.67226563 15.6490625 13.98828125 14.953125 C13.10527344 14.06109375 12.22226562 13.1690625 11.3125 12.25 C10.44238281 11.36828125 9.57226562 10.4865625 8.67578125 9.578125 C6.06986841 6.97393497 6.06986841 6.97393497 3.23046875 4.859375 C1 3 1 3 0 0 Z " fill="#C31A20" transform="translate(263,235)"/>
<path d="M0 0 C0.33 0.99 0.66 1.98 1 3 C-0.32 3.33 -1.64 3.66 -3 4 C-3.0825 4.61875 -3.165 5.2375 -3.25 5.875 C-4.24258118 8.68731335 -5.39700558 8.69850279 -8 10 C-9.75322937 12.53188648 -9.75322937 12.53188648 -11 15 C-12.32 14.67 -13.64 14.34 -15 14 C-3 2 -3 2 0 0 Z " fill="#010221" transform="translate(96,304)"/>
<path d="M0 0 C0.99 0.33 1.98 0.66 3 1 C3.12375 2.19625 3.2475 3.3925 3.375 4.625 C3.70580826 7.34817527 4.1695751 9.49875029 5.0625 12.125 C6.07753088 15.23776136 6.154871 17.7477089 6 21 C3.79669682 17.69504523 2.95561629 14.87667528 1.875 11.0625 C1.52179687 9.83660156 1.16859375 8.61070312 0.8046875 7.34765625 C0 4 0 4 0 0 Z " fill="#1E1DA1" transform="translate(44,251)"/>
<path d="M0 0 C5.38701299 -0.35324675 5.38701299 -0.35324675 8 0 C9.75 2 9.75 2 11 4 C12.32 4 13.64 4 15 4 C15.309375 4.78375 15.61875 5.5675 15.9375 6.375 C16.92875038 8.92330128 16.92875038 8.92330128 18 11 C14.64008841 9.41138932 11.5631733 7.5072351 8.4375 5.5 C7.48746094 4.8915625 6.53742188 4.283125 5.55859375 3.65625 C3.69685758 2.45109559 1.84528773 1.23019182 0 0 Z " fill="#1B0101" transform="translate(302,65)"/>
<path d="M0 0 C4.88049925 3.9419417 9.0580583 8.11950075 13 13 C12.401875 12.835 11.80375 12.67 11.1875 12.5 C8.88655664 11.8885876 8.88655664 11.8885876 6 12 C6.33 10.68 6.66 9.36 7 8 C4.69 7.34 2.38 6.68 0 6 C0 4.02 0 2.04 0 0 Z " fill="#EDF038" transform="translate(253,280)"/>
<path d="M0 0 C0.8125 1.6875 0.8125 1.6875 1 4 C-0.61129097 5.92315374 -2.10963078 7.38219565 -4 9 C-4.69867188 9.61875 -5.39734375 10.2375 -6.1171875 10.875 C-8.06740681 12.59619 -10.02890295 14.3028023 -12 16 C-12.66 15.67 -13.32 15.34 -14 15 C-13.45730469 14.55269531 -12.91460937 14.10539062 -12.35546875 13.64453125 C-8.46136259 10.35383614 -5.40766054 7.56188313 -3 3 C-1.3125 1.1875 -1.3125 1.1875 0 0 Z " fill="#F7FB1F" transform="translate(142,313)"/>
<path d="M0 0 C0.33 0 0.66 0 1 0 C1 2.97 1 5.94 1 9 C1.66 9 2.32 9 3 9 C2.57781184 10.6498275 2.13675575 12.29483665 1.6875 13.9375 C1.44386719 14.85402344 1.20023437 15.77054688 0.94921875 16.71484375 C0.63597656 17.46894531 0.32273437 18.22304687 0 19 C-0.99 19.33 -1.98 19.66 -3 20 C-3 17.69 -3 15.38 -3 13 C-2.34 13 -1.68 13 -1 13 C-0.67 8.71 -0.34 4.42 0 0 Z " fill="#180002" transform="translate(388,236)"/>
<path d="M0 0 C0 4.55347072 -2.63464378 7.26227391 -5.375 10.75 C-7.70234734 12.54026718 -10.20378325 13.19220405 -13 14 C-8.88380164 9.08064098 -4.59589638 4.47352044 0 0 Z " fill="#010124" transform="translate(186,217)"/>
<path d="M0 0 C0.66 0.99 1.32 1.98 2 3 C-0.64 5.64 -3.28 8.28 -6 11 C-6.66 10.67 -7.32 10.34 -8 10 C-7.67 9.05125 -7.34 8.1025 -7 7.125 C-5.89840809 4.22937548 -5.89840809 4.22937548 -6 2 C-4.68 2.33 -3.36 2.66 -2 3 C-1.34 2.01 -0.68 1.02 0 0 Z " fill="#0B0701" transform="translate(126,324)"/>
<path d="M0 0 C1.65 0.33 3.3 0.66 5 1 C0.375 5.875 0.375 5.875 -3 7 C-3.33 7.99 -3.66 8.98 -4 10 C-4.33 9.01 -4.66 8.02 -5 7 C-5.66 6.67 -6.32 6.34 -7 6 C-5.75 4.5 -5.75 4.5 -4 3 C-2.68 3 -1.36 3 0 3 C0 2.01 0 1.02 0 0 Z " fill="#1A18DA" transform="translate(139,257)"/>
<path d="M0 0 C0 0.66 0 1.32 0 2 C0.66 2.33 1.32 2.66 2 3 C2 3.66 2 4.32 2 5 C4.31 5.33 6.62 5.66 9 6 C5.94371936 6.97812873 4.14722553 7.00835683 1.109375 6.00390625 C0.40039062 5.77509766 -0.30859375 5.54628906 -1.0390625 5.31054688 C-1.76867187 5.06369141 -2.49828125 4.81683594 -3.25 4.5625 C-3.99507812 4.31951172 -4.74015625 4.07652344 -5.5078125 3.82617188 C-7.34158235 3.22667019 -9.17122004 2.61455513 -11 2 C-3.10084034 0 -3.10084034 0 0 0 Z " fill="#F3F438" transform="translate(165,378)"/>
<path d="M0 0 C3.79403384 1.26467795 4.06684293 2.61697513 6 6 C6.556875 6.556875 7.11375 7.11375 7.6875 7.6875 C8.120625 8.120625 8.55375 8.55375 9 9 C9 9.66 9 10.32 9 11 C8.34 11 7.68 11 7 11 C7.33 11.99 7.66 12.98 8 14 C7.34 14 6.68 14 6 14 C4.99515796 12.04414675 3.99626195 10.08523763 3 8.125 C2.1646875 6.48917969 2.1646875 6.48917969 1.3125 4.8203125 C0 2 0 2 0 0 Z " fill="#0C0605" transform="translate(205,293)"/>
<path d="M0 0 C0.99 0 1.98 0 3 0 C2.1875 2.9375 2.1875 2.9375 1 6 C0.01 6.33 -0.98 6.66 -2 7 C-2 7.66 -2 8.32 -2 9 C-6.2742558 7.4169423 -8.26531794 4.49431596 -11 1 C-9.68 1.33 -8.36 1.66 -7 2 C-7 2.66 -7 3.32 -7 4 C-6.34 4 -5.68 4 -5 4 C-5 4.66 -5 5.32 -5 6 C-3.68 6 -2.36 6 -1 6 C-0.67 4.02 -0.34 2.04 0 0 Z " fill="#BA171E" transform="translate(356,313)"/>
<path d="M0 0 C0.33 0 0.66 0 1 0 C1 1.65 1 3.3 1 5 C1.66 5.33 2.32 5.66 3 6 C-1.625 10.875 -1.625 10.875 -5 12 C-3.68938409 7.76570244 -2.05643741 3.92592596 0 0 Z " fill="#F5F72C" transform="translate(226,295)"/>
<path d="M0 0 C2.31 0.66 4.62 1.32 7 2 C7.59732819 4.76264289 8 7.16032769 8 10 C6.84481082 9.09515208 5.70114594 8.1755794 4.5625 7.25 C3.60537109 6.48429688 3.60537109 6.48429688 2.62890625 5.703125 C0.81189446 3.80332371 0.39576803 2.56413092 0 0 Z " fill="#EC050B" transform="translate(247,218)"/>
<path d="M0 0 C0.45890625 0.40992188 0.9178125 0.81984375 1.390625 1.2421875 C2.00421875 1.78101563 2.6178125 2.31984375 3.25 2.875 C3.85328125 3.40867188 4.4565625 3.94234375 5.078125 4.4921875 C6.93687748 6.0632399 6.93687748 6.0632399 9.09375 7 C12.07193474 8.56232642 13.28862296 11.18845201 15 14 C13.02 13.34 11.04 12.68 9 12 C9 11.34 9 10.68 9 10 C8.34 10 7.68 10 7 10 C6.34 9.01 5.68 8.02 5 7 C4.01 6.67 3.02 6.34 2 6 C0.8125 2.9375 0.8125 2.9375 0 0 Z " fill="#200101" transform="translate(234,209)"/>
<path d="M0 0 C2.86054142 2.69708191 5.47543296 5.44373499 7.875 8.5625 C8.30554688 9.12066406 8.73609375 9.67882812 9.1796875 10.25390625 C10.24857916 12.52911849 9.82144584 13.68271143 9 16 C4 10.5 4 10.5 4 6 C3.34 6 2.68 6 2 6 C1.34 4.02 0.68 2.04 0 0 Z " fill="#BC161B" transform="translate(350,106)"/>
<path d="M0 0 C0 4.03223106 -1.64129026 5.80880447 -4 9 C-4.99 9.495 -4.99 9.495 -6 10 C-6.65213292 12.02463255 -6.65213292 12.02463255 -7 14 C-8.32 13.67 -9.64 13.34 -11 13 C-5.03416856 3.40546697 -5.03416856 3.40546697 0 0 Z " fill="#191C99" transform="translate(86,98)"/>
<path d="M0 0 C3.80635497 3.20760251 7.54563567 6.40746109 11 10 C7.59687262 8.94124926 4.98646769 7.99097846 2 6 C1.34 6 0.68 6 0 6 C0 4.02 0 2.04 0 0 Z " fill="#F5F631" transform="translate(294,320)"/>
<path d="M0 0 C0.66 1.98 1.32 3.96 2 6 C-1.34373475 5.44271087 -4.03312999 4.64826111 -7 3 C-4.49955934 -0.00052879 -4.2621484 0 0 0 Z " fill="#F6F731" transform="translate(193,268)"/>
<path d="M0 0 C1.74890794 1.74890794 3.20678175 3.46462325 4.6875 5.4375 C5.14511719 6.03433594 5.60273438 6.63117188 6.07421875 7.24609375 C6.53248047 8.11427734 6.53248047 8.11427734 7 9 C6.67 9.99 6.34 10.98 6 12 C4.33333333 10.33333333 2.66666667 8.66666667 1 7 C0.401875 6.443125 -0.19625 5.88625 -0.8125 5.3125 C-2 4 -2 4 -2 2 C-1.34 2 -0.68 2 0 2 C0 1.34 0 0.68 0 0 Z " fill="#D01213" transform="translate(297,263)"/>
<path d="M0 0 C0.66 0.33 1.32 0.66 2 1 C-2.29 5.29 -6.58 9.58 -11 14 C-11.33 13.34 -11.66 12.68 -12 12 C-10.75491299 8.37792869 -9.29398603 7.64699302 -6 6 C-4.63755204 4.35704805 -3.30135125 2.69175663 -2 1 C-1.34 0.67 -0.68 0.34 0 0 Z " fill="#1D1DA1" transform="translate(110,288)"/>
<path d="M0 0 C2.475 0.495 2.475 0.495 5 1 C5 1.99 5 2.98 5 4 C5.66 4 6.32 4 7 4 C7.639375 4.804375 8.27875 5.60875 8.9375 6.4375 C10.81035932 9.23720732 10.81035932 9.23720732 14 10 C13.67 10.66 13.34 11.32 13 12 C9.34435261 10.46563424 7.01301377 8.25017578 4.25 5.4375 C3.45078125 4.63183594 2.6515625 3.82617188 1.828125 2.99609375 C0 1 0 1 0 0 Z " fill="#BF1015" transform="translate(304,275)"/>
<path d="M0 0 C8.54489164 0.99690402 8.54489164 0.99690402 12 2 C13.2375 2.350625 14.475 2.70125 15.75 3.0625 C16.8225 3.371875 17.895 3.68125 19 4 C19 4.33 19 4.66 19 5 C12.05829437 4.66944259 6.20918975 4.24571282 0 1 C0 0.67 0 0.34 0 0 Z " fill="#A61F1E" transform="translate(249,45)"/>
<path d="M0 0 C3.3 0.33 6.6 0.66 10 1 C5.52281208 3.98479194 1.36175907 5 -4 5 C-4 4.34 -4 3.68 -4 3 C-2.68 2.67 -1.36 2.34 0 2 C0 1.34 0 0.68 0 0 Z " fill="#F3F639" transform="translate(260,380)"/>
<path d="M0 0 C1.32 0.66 2.64 1.32 4 2 C2.02 4.31 0.04 6.62 -2 9 C-2.66 8.67 -3.32 8.34 -4 8 C-3.40072174 4.64404172 -2.15377564 2.62198774 0 0 Z " fill="#0B0603" transform="translate(114,334)"/>
<path d="M0 0 C0.66 0.99 1.32 1.98 2 3 C-0.27749471 7.22963303 -2.25563044 10.87969203 -6 14 C-6.66 14 -7.32 14 -8 14 C-7.34 12.35 -6.68 10.7 -6 9 C-5.34 9 -4.68 9 -4 9 C-3.71125 8.2575 -3.4225 7.515 -3.125 6.75 C-2.17697356 4.43260203 -1.15154089 2.22082885 0 0 Z " fill="#210202" transform="translate(367,301)"/>
<path d="M0 0 C2.375 0.5625 2.375 0.5625 5 2 C6.33261967 5.49019436 7 8.26638158 7 12 C4.47740939 10.02579865 4.0070192 9.03254358 3.3125 5.8125 C3.209375 4.884375 3.10625 3.95625 3 3 C1.35 2.67 -0.3 2.34 -2 2 C-1.34 1.34 -0.68 0.68 0 0 Z " fill="#070211" transform="translate(192,263)"/>
<path d="M0 0 C0.96349722 2.60144251 1.0123938 3.94670665 0.375 6.6875 C-1 9 -1 9 -3.625 9.8125 C-4.800625 9.9053125 -4.800625 9.9053125 -6 10 C-6 9.01 -6 8.02 -6 7 C-5.34 7 -4.68 7 -4 7 C-4 6.34 -4 5.68 -4 5 C-3.34 4.67 -2.68 4.34 -2 4 C-0.86649466 1.98330173 -0.86649466 1.98330173 0 0 Z " fill="#220304" transform="translate(358,315)"/>
<path d="M0 0 C0.99 0.33 1.98 0.66 3 1 C-0.27681643 3.75550472 -3.54173703 6.47280783 -7 9 C-7 7.02 -7 5.04 -7 3 C-3.535 2.505 -3.535 2.505 0 2 C0 1.34 0 0.68 0 0 Z " fill="#1A19B9" transform="translate(119,279)"/>
<path d="M0 0 C2.625 0.375 2.625 0.375 5 1 C3.6875 3.5 3.6875 3.5 2 6 C1.01 6 0.02 6 -1 6 C-1.625 4.125 -1.625 4.125 -2 2 C-1.34 1.34 -0.68 0.68 0 0 Z " fill="#0F11D8" transform="translate(183,213)"/>
<path d="M0 0 C0.66 0 1.32 0 2 0 C2.433125 0.598125 2.86625 1.19625 3.3125 1.8125 C4.89752068 4.16245107 4.89752068 4.16245107 7.5625 5.4375 C10.47597454 7.30511189 11.03159575 8.74264026 12 12 C2.87822878 5.35793358 2.87822878 5.35793358 0 2 C0 1.34 0 0.68 0 0 Z " fill="#BA1E1F" transform="translate(236,209)"/>
<path d="M0 0 C4.95 0.99 4.95 0.99 10 2 C9.01 3.32 8.02 4.64 7 6 C4.625 5.8125 4.625 5.8125 2 5 C0.6875 2.4375 0.6875 2.4375 0 0 Z " fill="#0C0609" transform="translate(168,384)"/>
<path d="M0 0 C2.31 0 4.62 0 7 0 C2.8310781 3.64780666 -2.44803736 6 -8 6 C-8 5.34 -8 4.68 -8 4 C-6.865625 3.71125 -5.73125 3.4225 -4.5625 3.125 C-3.386875 2.75375 -2.21125 2.3825 -1 2 C-0.67 1.34 -0.34 0.68 0 0 Z " fill="#F5F442" transform="translate(278,375)"/>
<path d="M0 0 C2.0625 0.4375 2.0625 0.4375 4 1 C3.34 1 2.68 1 2 1 C1.67 1.99 1.34 2.98 1 4 C1.66 4.33 2.32 4.66 3 5 C3.625 7.0625 3.625 7.0625 4 9 C1.50638429 7.79618552 -0.68143083 6.54571278 -3 5 C-1.125 1.125 -1.125 1.125 0 0 Z " fill="#E8EB3E" transform="translate(107,346)"/>
<path d="M0 0 C0.61875 0.78375 1.2375 1.5675 1.875 2.375 C3.89858661 4.96837647 3.89858661 4.96837647 6 7 C7.03161608 8.98387708 8.03523618 10.98276656 9 13 C6.14059964 12.3645777 4.44177401 11.65348679 2.77734375 9.19140625 C1.10621088 5.92700692 0 3.71683985 0 0 Z " fill="#040620" transform="translate(64,305)"/>
<path d="M0 0 C0.33 0.99 0.66 1.98 1 3 C1.99 3.33 2.98 3.66 4 4 C4.33 6.97 4.66 9.94 5 13 C2.47368858 9.87218586 0.57626634 6.70422589 -1 3 C-0.67 2.01 -0.34 1.02 0 0 Z " fill="#1718B4" transform="translate(56,285)"/>
<path d="M0 0 C0 0.66 0 1.32 0 2 C0.66 2.33 1.32 2.66 2 3 C0.9275 3.144375 -0.145 3.28875 -1.25 3.4375 C-4.79185272 3.87954706 -4.79185272 3.87954706 -7.3125 4.6875 C-7.869375 4.790625 -8.42625 4.89375 -9 5 C-9.66 4.34 -10.32 3.68 -11 3 C-9.73160474 2.49384702 -8.46016898 1.99530901 -7.1875 1.5 C-6.12595703 1.08234375 -6.12595703 1.08234375 -5.04296875 0.65625 C-3 0 -3 0 0 0 Z " fill="#0D0701" transform="translate(281,378)"/>
<path d="M0 0 C2 3 2 3 2 5 C2.66 5 3.32 5 4 5 C4 7.64 4 10.28 4 13 C0.65782155 9.35398714 -0.06614818 5.7470801 -1 1 C-0.67 0.67 -0.34 0.34 0 0 Z " fill="#1F1DAE" transform="translate(51,272)"/>
<path d="M0 0 C3.99500618 1.3697164 6.80009492 3.25722422 10 6 C9.67 7.32 9.34 8.64 9 10 C7.49702124 8.52386015 5.99768715 7.04400843 4.5 5.5625 C3.6646875 4.73878906 2.829375 3.91507812 1.96875 3.06640625 C0 1 0 1 0 0 Z " fill="#0E0300" transform="translate(310,334)"/>
<path d="M0 0 C0.99 0.66 1.98 1.32 3 2 C1.68 4.64 0.36 7.28 -1 10 C-1.33 9.01 -1.66 8.02 -2 7 C-2.66 7 -3.32 7 -4 7 C-4 6.34 -4 5.68 -4 5 C-3.34 5 -2.68 5 -2 5 C-1.34 3.35 -0.68 1.7 0 0 Z " fill="#0C0607" transform="translate(222,297)"/>
<path d="M0 0 C0.33 0 0.66 0 1 0 C1 1.98 1 3.96 1 6 C1.66 6.33 2.32 6.66 3 7 C2.01 7.33 1.02 7.66 0 8 C0 8.66 0 9.32 0 10 C-0.99 10 -1.98 10 -3 10 C-2.39009109 6.44219804 -1.4216319 3.3171411 0 0 Z " fill="#1B1BBA" transform="translate(53,150)"/>
<path d="M0 0 C4.29 0.66 8.58 1.32 13 2 C13 2.66 13 3.32 13 4 C8.38 4 3.76 4 -1 4 C-0.67 2.68 -0.34 1.36 0 0 Z " fill="#9F1F22" transform="translate(235,42)"/>
<path d="M0 0 C0.33 0 0.66 0 1 0 C1.1799928 5.21979128 0.97094808 9.07262981 -1 14 C-1.66 14 -2.32 14 -3 14 C-2.40380045 9.13103697 -1.43023178 4.67209049 0 0 Z " fill="#1F1FA3" transform="translate(49,160)"/>
<path d="M0 0 C1.7074998 1.28062485 3.37373596 2.61767557 5 4 C5 4.66 5 5.32 5 6 C6.32 6.66 7.64 7.32 9 8 C8.34 8.66 7.68 9.32 7 10 C4.36 7.36 1.72 4.72 -1 2 C-0.67 1.34 -0.34 0.68 0 0 Z " fill="#0E0801" transform="translate(286,309)"/>
<path d="M0 0 C0.66 0.33 1.32 0.66 2 1 C1 4 1 4 -0.8125 5.25 C-3.33943414 6.11637742 -4.52221994 5.88492145 -7 5 C-4.63707344 2.47411298 -3.33537489 1.11179163 0 0 Z " fill="#F5F922" transform="translate(150,307)"/>
<path d="M0 0 C5.78461538 4.30769231 5.78461538 4.30769231 6.875 7.8125 C6.936875 8.8953125 6.936875 8.8953125 7 10 C5.87105124 9.06725891 4.74699124 8.12859878 3.625 7.1875 C2.99851562 6.66542969 2.37203125 6.14335937 1.7265625 5.60546875 C0 4 0 4 -2 1 C-1.34 0.67 -0.68 0.34 0 0 Z " fill="#100901" transform="translate(269,292)"/>
<path d="M0 0 C1.10251165 3.30753495 2.05066101 6.64566891 3 10 C2.34 10.66 1.68 11.32 1 12 C1 11.34 1 10.68 1 10 C0.34 9.67 -0.32 9.34 -1 9 C-1.75 5.5625 -1.75 5.5625 -2 2 C-1.34 1.34 -0.68 0.68 0 0 Z " fill="#180202" transform="translate(379,148)"/>
<path d="M0 0 C1.14926266 0.95421808 2.29430541 1.91352045 3.4375 2.875 C4.07558594 3.40867187 4.71367187 3.94234375 5.37109375 4.4921875 C7 6 7 6 8 8 C7.401875 7.835 6.80375 7.67 6.1875 7.5 C3.88655664 6.8885876 3.88655664 6.8885876 1 7 C0.67 4.69 0.34 2.38 0 0 Z " fill="#F4F538" transform="translate(266,293)"/>
<path d="M0 0 C0.66 0.33 1.32 0.66 2 1 C1.54738642 2.43931117 1.08767021 3.87638999 0.625 5.3125 C0.36976562 6.11300781 0.11453125 6.91351563 -0.1484375 7.73828125 C-1 10 -1 10 -3 13 C-3 11.02 -3 9.04 -3 7 C-2.34 7 -1.68 7 -1 7 C-1 6.01 -1 5.02 -1 4 C-1.66 3.67 -2.32 3.34 -3 3 C-2.01 2.67 -1.02 2.34 0 2 C0 1.34 0 0.68 0 0 Z " fill="#030413" transform="translate(52,147)"/>
<path d="M0 0 C1.32 0 2.64 0 4 0 C4 0.66 4 1.32 4 2 C3.34 2 2.68 2 2 2 C1.67 3.65 1.34 5.3 1 7 C-1 6 -1 6 -3 4 C-1.75 2 -1.75 2 0 0 Z " fill="#0402E5" transform="translate(76,112)"/>
<path d="M0 0 C0 4.31618166 -2.13270348 5.92789659 -5 9 C-5.66 9 -6.32 9 -7 9 C-7 9.66 -7 10.32 -7 11 C-7.66 10.67 -8.32 10.34 -9 10 C-6.43571997 5.82117329 -3.98069267 2.87494471 0 0 Z " fill="#0503DE" transform="translate(92,94)"/>
<path d="M0 0 C3.875 1.75 3.875 1.75 5 4 C3.02 5.32 1.04 6.64 -1 8 C-0.67 5.36 -0.34 2.72 0 0 Z " fill="#F1F441" transform="translate(321,347)"/>
<path d="M0 0 C3.53600465 1.91135386 5.78972846 3.62642766 8 7 C5.69 6.34 3.38 5.68 1 5 C0.67 3.35 0.34 1.7 0 0 Z " fill="#EEEC3D" transform="translate(274,301)"/>
<path d="M0 0 C3 3.75 3 3.75 3 6 C1.68 5.67 0.36 5.34 -1 5 C-1 5.66 -1 6.32 -1 7 C-1.66 7 -2.32 7 -3 7 C-3 6.34 -3 5.68 -3 5 C-3.66 4.67 -4.32 4.34 -5 4 C-4.01 3.67 -3.02 3.34 -2 3 C-1.34 2.01 -0.68 1.02 0 0 Z " fill="#0103ED" transform="translate(73,304)"/>
<path d="M0 0 C0 3.16820458 -0.62797454 4.25594908 -2 7 C-2 7.99 -2 8.98 -2 10 C-3.32 9.67 -4.64 9.34 -6 9 C-5.52797514 4.75177626 -3.03344482 2.80010291 0 0 Z " fill="#F9F734" transform="translate(166,290)"/>
<path d="M0 0 C0.33 0.66 0.66 1.32 1 2 C-0.125 4.5625 -0.125 4.5625 -2 7 C-4.6875 7.8125 -4.6875 7.8125 -7 8 C-6.02133662 6.85373678 -5.04205413 5.70800212 -4.0625 4.5625 C-3.51722656 3.92441406 -2.97195312 3.28632813 -2.41015625 2.62890625 C-1.63204305 1.73008851 -0.84063472 0.84063472 0 0 Z " fill="#F7F63C" transform="translate(174,282)"/>
<path d="M0 0 C2 3 2 3 2.5 5.125 C2.665 5.74375 2.83 6.3625 3 7 C3.66 7.33 4.32 7.66 5 8 C4.01 8.33 3.02 8.66 2 9 C1.01 8.34 0.02 7.68 -1 7 C-0.67 4.69 -0.34 2.38 0 0 Z " fill="#020317" transform="translate(51,278)"/>
<path d="M0 0 C0.66 0.33 1.32 0.66 2 1 C0.02 3.97 -1.96 6.94 -4 10 C-4.99 9.67 -5.98 9.34 -7 9 C-6.57847656 8.51789063 -6.15695313 8.03578125 -5.72265625 7.5390625 C-5.17480469 6.90742188 -4.62695312 6.27578125 -4.0625 5.625 C-3.51722656 4.99851562 -2.97195312 4.37203125 -2.41015625 3.7265625 C-0.93041376 2.04367666 -0.93041376 2.04367666 0 0 Z " fill="#040526" transform="translate(128,272)"/>
<path d="M0 0 C0.33 0.99 0.66 1.98 1 3 C-0.4375 5.1875 -0.4375 5.1875 -2 7 C-3.65 6.67 -5.3 6.34 -7 6 C-5.73134318 3.46268636 -4.50290879 3.21353154 -2 2 C-1.34 1.34 -0.68 0.68 0 0 Z " fill="#0103F0" transform="translate(59,269)"/>
<path d="M0 0 C1.45606519 4.52092968 0.27032841 7.51648796 -1 12 C-1.66 12 -2.32 12 -3 12 C-2.88541307 10.56163249 -2.75790884 9.12429034 -2.625 7.6875 C-2.55539062 6.88699219 -2.48578125 6.08648437 -2.4140625 5.26171875 C-2 3 -2 3 0 0 Z " fill="#A7221D" transform="translate(385,250)"/>
<path d="M0 0 C2.31 0.33 4.62 0.66 7 1 C7.33 2.65 7.66 4.3 8 6 C5 6 5 6 3.61328125 4.6875 C2.40885417 3.125 1.20442708 1.5625 0 0 Z " fill="#EF0509" transform="translate(272,242)"/>
<path d="M0 0 C3 3 3 3 3.07421875 5.48046875 C2.94660156 6.37378906 2.81898437 7.26710937 2.6875 8.1875 C2.56761719 9.08855469 2.44773438 9.98960937 2.32421875 10.91796875 C2.21722656 11.60503906 2.11023437 12.29210937 2 13 C1.67 13 1.34 13 1 13 C0.67 8.71 0.34 4.42 0 0 Z " fill="#2B2CAB" transform="translate(42,237)"/>
<path d="M0 0 C1 3 1 3 1 5 C0.236875 5.28875 -0.52625 5.5775 -1.3125 5.875 C-4.15029308 6.96269013 -4.15029308 6.96269013 -7 9 C-5.44499019 5.18315774 -2.96404505 2.80804268 0 0 Z " fill="#F9FB0C" transform="translate(118,338)"/>
<path d="M0 0 C0.66 0 1.32 0 2 0 C2 0.66 2 1.32 2 2 C2.99 2.33 3.98 2.66 5 3 C4.67 3.99 4.34 4.98 4 6 C2.68 6 1.36 6 0 6 C0 5.34 0 4.68 0 4 C-0.66 3.67 -1.32 3.34 -2 3 C-1.34 2.67 -0.68 2.34 0 2 C0 1.34 0 0.68 0 0 Z " fill="#F30404" transform="translate(351,313)"/>
<path d="M0 0 C2.15377564 2.62198774 3.40072174 4.64404172 4 8 C2.02 8 0.04 8 -2 8 C-1.34 5.36 -0.68 2.72 0 0 Z " fill="#F6F82A" transform="translate(195,274)"/>
<path d="M0 0 C-0.33 1.32 -0.66 2.64 -1 4 C-1.33 3.67 -1.66 3.34 -2 3 C-2.680625 3.99 -2.680625 3.99 -3.375 5 C-3.91125 5.66 -4.4475 6.32 -5 7 C-5.66 7 -6.32 7 -7 7 C-6.39816251 4.97954558 -5.72693904 2.97888961 -5 1 C-3 0 -3 0 0 0 Z " fill="#F7F829" transform="translate(242,271)"/>
<path d="M0 0 C1.32 0 2.64 0 4 0 C6 3 6 3 5.625 5.1875 C5.41875 5.785625 5.2125 6.38375 5 7 C3.29115995 5.37660195 1.62553283 3.70680947 0 2 C0 1.34 0 0.68 0 0 Z " fill="#C90D13" transform="translate(256,228)"/>
<path d="M0 0 C0.66 0.33 1.32 0.66 2 1 C1.67 6.28 1.34 11.56 1 17 C0.67 17 0.34 17 0 17 C0 12.38 0 7.76 0 3 C-0.66 2.67 -1.32 2.34 -2 2 C-1.34 1.34 -0.68 0.68 0 0 Z " fill="#1B0000" transform="translate(390,206)"/>
<path d="M0 0 C0.99 0 1.98 0 3 0 C3 1.32 3 2.64 3 4 C3.99 4.33 4.98 4.66 6 5 C4.68 5.99 3.36 6.98 2 8 C2 6.68 2 5.36 2 4 C1.34 4 0.68 4 0 4 C0 2.68 0 1.36 0 0 Z " fill="#000018" transform="translate(90,84)"/>
<path d="M0 0 C0.33 1.32 0.66 2.64 1 4 C-0.98 4 -2.96 4 -5 4 C-5 3.34 -5 2.68 -5 2 C-5.66 1.67 -6.32 1.34 -7 1 C-4.50935112 0.31292445 -2.62113708 0 0 0 Z " fill="#1F0502" transform="translate(281,50)"/>
<path d="M0 0 C0.66 1.32 1.32 2.64 2 4 C0.1875 5.5625 0.1875 5.5625 -2 7 C-2.99 6.67 -3.98 6.34 -5 6 C-3.35 4.02 -1.7 2.04 0 0 Z " fill="#080211" transform="translate(325,353)"/>
<path d="M0 0 C0.99 0.33 1.98 0.66 3 1 C0.69 3.31 -1.62 5.62 -4 8 C-4.33 6.68 -4.66 5.36 -5 4 C-4.01 3.67 -3.02 3.34 -2 3 C-1.34 2.01 -0.68 1.02 0 0 Z " fill="#0F0200" transform="translate(165,288)"/>
<path d="M0 0 C0.66 0 1.32 0 2 0 C2.125 5.75 2.125 5.75 1 8 C0.34 8 -0.32 8 -1 8 C-1.33 6.02 -1.66 4.04 -2 2 C-1.34 2 -0.68 2 0 2 C0 1.34 0 0.68 0 0 Z " fill="#D00D10" transform="translate(372,284)"/>
<path d="M0 0 C1.32 0.66 2.64 1.32 4 2 C2.35 3.98 0.7 5.96 -1 8 C-1.93065133 5.39417629 -2.14917407 4.35801776 -1.0625 1.75 C-0.711875 1.1725 -0.36125 0.595 0 0 Z " fill="#0E0403" transform="translate(170,280)"/>
<path d="M0 0 C0 1.32 0 2.64 0 4 C-1.96466413 5.06775224 -3.96855359 6.06553465 -6 7 C-6.66 6.67 -7.32 6.34 -8 6 C-7.0479279 4.99403703 -6.08812654 3.99538437 -5.125 3 C-4.59132812 2.443125 -4.05765625 1.88625 -3.5078125 1.3125 C-2 0 -2 0 0 0 Z " fill="#E6E640" transform="translate(183,275)"/>
<path d="M0 0 C1.65 0 3.3 0 5 0 C5.33 1.65 5.66 3.3 6 5 C6.66 5 7.32 5 8 5 C7.67 5.66 7.34 6.32 7 7 C5.83040013 6.02433888 4.66438823 5.044375 3.5 4.0625 C2.8503125 3.51722656 2.200625 2.97195312 1.53125 2.41015625 C1.0259375 1.94480469 0.520625 1.47945312 0 1 C0 0.67 0 0.34 0 0 Z " fill="#BD1217" transform="translate(280,252)"/>
<path d="M0 0 C1.125 3.75 1.125 3.75 0 6 C-2.4375 7.6875 -2.4375 7.6875 -5 9 C-5.66 8.67 -6.32 8.34 -7 8 C-2.25 2.25 -2.25 2.25 0 0 Z " fill="#030427" transform="translate(165,236)"/>
<path d="M0 0 C0.66 0 1.32 0 2 0 C2 0.66 2 1.32 2 2 C3.32 2.33 4.64 2.66 6 3 C6.33 4.98 6.66 6.96 7 9 C4.03595495 6.19195732 1.55500981 3.81684226 0 0 Z " fill="#240000" transform="translate(351,106)"/>
<path d="M0 0 C0.66 0.33 1.32 0.66 2 1 C1.38125 1.20625 0.7625 1.4125 0.125 1.625 C-2.84653645 3.54775888 -3.13024659 5.66594527 -4 9 C-4.99 8.67 -5.98 8.34 -7 8 C-3.375 2.25 -3.375 2.25 0 0 Z " fill="#1A17BE" transform="translate(120,69)"/>
<path d="M0 0 C0.66 0.33 1.32 0.66 2 1 C-1.465 3.97 -1.465 3.97 -5 7 C-5.33 5.68 -5.66 4.36 -6 3 C-5.01 3 -4.02 3 -3 3 C-3 2.34 -3 1.68 -3 1 C-2.01 0.67 -1.02 0.34 0 0 Z " fill="#2322BA" transform="translate(96,302)"/>
<path d="M0 0 C1.65 0.33 3.3 0.66 5 1 C4.67 2.65 4.34 4.3 4 6 C3.67 5.34 3.34 4.68 3 4 C1.35 4 -0.3 4 -2 4 C-1.34 2.68 -0.68 1.36 0 0 Z " fill="#EA0606" transform="translate(360,300)"/>
<path d="M0 0 C-0.66 1.98 -1.32 3.96 -2 6 C-2.99 5.67 -3.98 5.34 -5 5 C-5 4.01 -5 3.02 -5 2 C-2 0 -2 0 0 0 Z " fill="#0B0701" transform="translate(233,280)"/>
<path d="M0 0 C0.99 0.33 1.98 0.66 3 1 C3 3.64 3 6.28 3 9 C2.34 8.67 1.68 8.34 1 8 C0.40644386 5.35139573 0.25790731 2.70802678 0 0 Z " fill="#1818AE" transform="translate(44,251)"/>
<path d="M0 0 C0.33 0 0.66 0 1 0 C1.33 3.96 1.66 7.92 2 12 C1.34 12 0.68 12 0 12 C-1.53166168 7.91556885 -0.63081652 4.20544343 0 0 Z " fill="#AE1D1A" transform="translate(386,183)"/>
<path d="M0 0 C0.33 1.32 0.66 2.64 1 4 C-0.98 4 -2.96 4 -5 4 C-5.33 3.34 -5.66 2.68 -6 2 C-2.25 0 -2.25 0 0 0 Z " fill="#0C030C" transform="translate(294,372)"/>
<path d="M0 0 C0.33 1.32 0.66 2.64 1 4 C-0.96466413 5.06775224 -2.96855359 6.06553465 -5 7 C-5.66 6.67 -6.32 6.34 -7 6 C-4.69 4.02 -2.38 2.04 0 0 Z " fill="#140F00" transform="translate(324,351)"/>
<path d="M0 0 C0.66 0 1.32 0 2 0 C3.09658936 3.28976808 2.79953138 4.71303767 2 8 C2.66 8 3.32 8 4 8 C4 8.66 4 9.32 4 10 C3.01 9.67 2.02 9.34 1 9 C0.67 6.03 0.34 3.06 0 0 Z " fill="#0E0ECD" transform="translate(66,301)"/>
<path d="M0 0 C0.66 0 1.32 0 2 0 C2.66 1.98 3.32 3.96 4 6 C2.68 5.67 1.36 5.34 0 5 C0 4.34 0 3.68 0 3 C-0.66 2.67 -1.32 2.34 -2 2 C-1.34 1.34 -0.68 0.68 0 0 Z " fill="#FCFB11" transform="translate(166,292)"/>
<path d="M0 0 C0.66 0 1.32 0 2 0 C2 0.66 2 1.32 2 2 C2.99 2.33 3.98 2.66 5 3 C4.01 4.485 4.01 4.485 3 6 C2.01 5.67 1.02 5.34 0 5 C0 3.35 0 1.7 0 0 Z " fill="#F10506" transform="translate(298,258)"/>
<path d="M0 0 C0.99 0.66 1.98 1.32 3 2 C3 2.66 3 3.32 3 4 C1.1875 4.625 1.1875 4.625 -1 5 C-1.99 4.34 -2.98 3.68 -4 3 C-2.68 2.01 -1.36 1.02 0 0 Z " fill="#070707" transform="translate(195,424)"/>
<path d="M0 0 C2.31 0 4.62 0 7 0 C6.34 1.65 5.68 3.3 5 5 C2 4 2 4 0.8125 1.9375 C0.544375 1.298125 0.27625 0.65875 0 0 Z " fill="#141243" transform="translate(74,319)"/>
<path d="M0 0 C1.65 0 3.3 0 5 0 C4.34 1.98 3.68 3.96 3 6 C1.5 4.6875 1.5 4.6875 0 3 C0 2.01 0 1.02 0 0 Z " fill="#000218" transform="translate(54,137)"/>
<path d="M0 0 C1.65 0 3.3 0 5 0 C4.34 1.32 3.68 2.64 3 4 C2.01 4 1.02 4 0 4 C0 2.68 0 1.36 0 0 Z " fill="#FEFB11" transform="translate(292,362)"/>
<path d="M0 0 C3.16115776 1.36983503 3.9927092 1.9890638 6 5 C5.401875 4.835 4.80375 4.67 4.1875 4.5 C1.88655664 3.8885876 1.88655664 3.8885876 -1 4 C-0.67 2.68 -0.34 1.36 0 0 Z " fill="#F6F735" transform="translate(260,288)"/>
<path d="M0 0 C0 3.20395416 -0.74335022 5.09399739 -2 8 C-2.99 7.67 -3.98 7.34 -5 7 C-3.70700306 4.11562221 -2.34058637 2.12780579 0 0 Z " fill="#04051A" transform="translate(172,231)"/>
<path d="M0 0 C1.32 0 2.64 0 4 0 C4 0.99 4 1.98 4 3 C5.32 3.66 6.64 4.32 8 5 C7.67 5.66 7.34 6.32 7 7 C5.83040013 6.02433888 4.66438823 5.044375 3.5 4.0625 C2.8503125 3.51722656 2.200625 2.97195312 1.53125 2.41015625 C1.0259375 1.94480469 0.520625 1.47945312 0 1 C0 0.67 0 0.34 0 0 Z " fill="#C21415" transform="translate(248,221)"/>
</svg>
